<?xml version="1.0" encoding="UTF-8" standalone="no"?>
<svg width="68px" height="72px" viewBox="0 0 68 72" version="1.1" xmlns="http://www.w3.org/2000/svg" xmlns:xlink="http://www.w3.org/1999/xlink">
    <!-- Generator: Sketch 48.2 (47327) - http://www.bohemiancoding.com/sketch -->
    <title>building</title>
    <desc>Created with Sketch.</desc>
    <defs></defs>
    <g id="SPR-Sovereign-1440" stroke="none" stroke-width="1" fill="none" fill-rule="evenodd" transform="translate(-685.000000, -2279.000000)">
        <g id="building" transform="translate(685.000000, 2279.000000)" fill="#32221E">
            <path d="M59.06,68.4959 L63.868,68.4959 L63.868,63.9089 L59.06,63.9089 L59.06,68.4959 Z M3.5,68.4959 L3.5,18.0269 C3.5,17.7259 3.745,17.4809 4.047,17.4809 L18.073,17.4809 L18.073,68.4959 L3.5,68.4959 Z M21.573,4.0469 C21.573,3.7459 21.818,3.5009 22.12,3.4999 L54.729,3.4999 C55.03,3.5009 55.275,3.7459 55.276,4.0469 L55.276,68.4959 L40.872,68.4959 L40.872,54.7419 L36.132,54.7419 L36.132,68.4959 L21.573,68.4959 L21.573,13.9809 L21.573,4.0469 Z M63.43,37.0559 C63.671,37.0559 63.867,37.2529 63.868,37.4939 L63.868,41.6769 L59.06,41.6769 L59.06,37.0559 L63.43,37.0559 Z M59.06,50.4259 L63.868,50.4259 L63.868,45.3719 L59.06,45.3719 L59.06,50.4259 Z M59.06,59.5309 L63.868,59.5309 L63.868,54.6159 L59.06,54.6159 L59.06,59.5309 Z M63.43,33.5559 C65.605,33.5569 67.367,35.3179 67.368,37.4939 L67.368,70.2459 L67.368,71.9959 L58.776,71.9959 L55.56,71.9959 L21.573,71.9959 L18.073,71.9959 L0,71.9959 L0,18.0269 C0.001,15.7919 1.811,13.9819 4.047,13.9809 L18.073,13.9809 L18.073,4.0469 C18.074,1.8109 19.884,0.0009 22.12,-0.0001 L54.729,-0.0001 C56.964,0.0009 58.774,1.8109 58.776,4.0469 L58.776,33.5559 L63.43,33.5559 Z M26.948,13.0639 L31.688,13.0639 L31.688,8.3239 L26.948,8.3239 L26.948,13.0639 Z M36.132,13.0639 L40.872,13.0639 L40.872,8.3239 L36.132,8.3239 L36.132,13.0639 Z M45.317,13.0639 L50.057,13.0639 L50.057,8.3239 L45.317,8.3239 L45.317,13.0639 Z M8.593,27.2339 L13.333,27.2339 L13.333,22.4939 L8.593,22.4939 L8.593,27.2339 Z M8.593,36.2099 L13.333,36.2099 L13.333,31.4699 L8.593,31.4699 L8.593,36.2099 Z M8.593,45.1869 L13.333,45.1869 L13.333,40.4469 L8.593,40.4469 L8.593,45.1869 Z M8.593,54.1629 L13.333,54.1629 L13.333,49.4229 L8.593,49.4229 L8.593,54.1629 Z M8.593,63.1389 L13.333,63.1389 L13.333,58.3989 L8.593,58.3989 L8.593,63.1389 Z M36.132,22.5449 L40.872,22.5449 L40.872,17.8049 L36.132,17.8049 L36.132,22.5449 Z M26.948,22.5449 L31.688,22.5449 L31.688,17.8049 L26.948,17.8049 L26.948,22.5449 Z M45.317,22.5449 L50.057,22.5449 L50.057,17.8049 L45.317,17.8049 L45.317,22.5449 Z M26.948,32.0259 L31.688,32.0259 L31.688,27.2859 L26.948,27.2859 L26.948,32.0259 Z M36.132,32.0259 L40.872,32.0259 L40.872,27.2859 L36.132,27.2859 L36.132,32.0259 Z M45.317,32.0259 L50.057,32.0259 L50.057,27.2859 L45.317,27.2859 L45.317,32.0259 Z M26.948,41.5069 L31.688,41.5069 L31.688,36.7669 L26.948,36.7669 L26.948,41.5069 Z M36.132,41.5069 L40.872,41.5069 L40.872,36.7669 L36.132,36.7669 L36.132,41.5069 Z M45.317,41.5069 L50.057,41.5069 L50.057,36.7669 L45.317,36.7669 L45.317,41.5069 Z M26.948,50.9869 L31.688,50.9869 L31.688,46.2469 L26.948,46.2469 L26.948,50.9869 Z M36.132,50.9869 L40.872,50.9869 L40.872,46.2469 L36.132,46.2469 L36.132,50.9869 Z M45.317,50.9869 L50.057,50.9869 L50.057,46.2469 L45.317,46.2469 L45.317,50.9869 Z M26.948,60.4679 L31.688,60.4679 L31.688,55.7279 L26.948,55.7279 L26.948,60.4679 Z M45.317,60.4679 L50.057,60.4679 L50.057,55.7279 L45.317,55.7279 L45.317,60.4679 Z" id="Combined-Shape"></path>
        </g>
    </g>
</svg>