<?xml version="1.0" encoding="UTF-8" standalone="no"?>
<svg width="95px" height="85px" viewBox="0 0 95 85" version="1.1" xmlns="http://www.w3.org/2000/svg" xmlns:xlink="http://www.w3.org/1999/xlink">
    <!-- Generator: Sketch 48.2 (47327) - http://www.bohemiancoding.com/sketch -->
    <title>pay</title>
    <desc>Created with Sketch.</desc>
    <defs></defs>
    <g id="SPR-Sovereign-1440" stroke="none" stroke-width="1" fill="none" fill-rule="evenodd" transform="translate(-363.000000, -2276.000000)">
        <g id="pay" transform="translate(363.000000, 2276.000000)" fill="#32221E">
            <path d="M87.3401749,25.3647255 C84.7261749,23.4407255 83.5581749,19.3917255 84.7631749,16.2967255 C86.6771749,17.3537255 88.4611749,18.4367255 90.5051749,19.5657255 C89.3731749,21.5807255 88.4161749,23.4507255 87.3401749,25.3647255 M80.9151749,36.8087255 C76.2261749,45.1567255 71.5281749,53.5007255 66.8611749,61.8607255 C66.4701749,62.5617255 66.1331749,62.7297255 65.3281749,62.4827255 C61.5841749,61.3347255 56.4331749,61.8247255 52.3081749,66.6727255 C51.9251749,66.4677255 51.5571749,66.2657255 51.0671749,66.0037255 C51.2891749,65.6317255 51.4191749,65.3057255 51.6151749,65.0137255 C55.1371749,59.7747255 58.6781749,54.5497255 62.1671749,49.2897255 C62.6121749,48.6177255 63.0791749,48.5557255 63.7961749,48.5637255 C65.1421749,48.5797255 66.5291749,48.6047255 67.8291749,48.3137255 C72.8661749,47.1847255 75.4901749,42.7647255 73.9341749,37.8567255 C72.1161749,32.1227255 67.8251749,28.9797255 62.2361749,27.4197255 C59.7451749,26.7247255 57.2181749,26.7527255 54.7631749,27.6707255 C50.6251749,29.2177255 48.5141749,33.5107255 49.8291749,37.3877255 C50.2011749,38.3367255 50.2011749,39.7887255 49.2671749,40.8517255 C47.8491749,42.2137255 46.4311749,43.5737255 45.0151749,44.9347255 C43.6331749,46.2627255 42.0361749,46.7077255 40.1781749,46.2187255 C40.7611749,45.0607255 47.5301749,31.4237255 49.1431749,28.3847255 C51.7721749,23.4277255 54.4881749,18.5177255 57.1501749,13.5777255 C57.4181749,13.0807255 57.6701749,12.9107255 58.2611749,13.0807255 C63.4011749,14.5577255 67.7291749,13.2337255 71.2601749,9.23672554 C71.3301749,9.15772554 71.4261749,9.10072554 71.5941749,8.96572554 C74.9721749,10.8437255 78.2981749,12.6927255 81.6351749,14.5487255 C79.9821749,20.0587255 81.2221749,24.6817255 85.5861749,28.4847255 C84.0311749,31.2557255 82.4741749,34.0327255 80.9151749,36.8087255 M61.3191749,71.6907255 C59.3071749,70.5747255 57.2961749,69.5047255 55.3801749,68.4407255 C57.0101749,65.8517255 61.4711749,64.5937255 64.5951749,65.8397255 C63.5071749,67.7827255 62.4291749,69.7077255 61.3191749,71.6907255 M65.9361749,39.1117255 C64.7841749,35.0247255 58.4051749,31.7177255 54.0571749,36.0667255 C53.7681749,36.3547255 53.4471749,36.5787255 53.2481749,36.7317255 C52.1981749,34.5827255 53.2981749,31.9637255 55.6711749,30.9287255 C57.2761749,30.2297255 58.9671749,30.1747255 60.6461749,30.5017255 C64.2511749,31.2037255 67.2411749,32.9817255 69.3401749,36.0207255 C70.0491749,37.0477255 70.5811749,38.2887255 70.8561749,39.5087255 C71.6171749,42.8837255 68.6811749,45.7857255 65.1301749,45.1287255 C66.2541749,43.2337255 66.5331749,41.2317255 65.9361749,39.1117255 M46.4171749,66.6997255 C44.6081749,69.4177255 42.1351749,71.1737255 38.9581749,71.9597255 C34.3351749,73.1027255 29.3581749,73.2487255 24.6641749,74.4267255 C24.3721749,73.8257255 17.7231749,59.8497255 14.4501749,52.9177255 C14.0991749,52.1757255 14.1461749,51.7297255 14.7211749,51.1157255 C20.7921749,44.6277255 26.8321749,38.1097255 32.8701749,31.5907255 C34.4801749,29.8527255 36.3901749,28.6287255 38.6721749,27.9637255 C41.2701749,27.2057255 43.8561749,26.4057255 46.7761749,25.5247255 C45.7141749,27.6547255 44.7891749,29.5217255 43.8541749,31.3827255 C42.4551749,34.1697255 40.9421749,36.9047255 39.6801749,39.7517255 C38.7301749,41.8957255 37.4691749,43.8657255 36.5121749,45.9977255 C35.8851749,47.3927255 36.1211749,48.1857255 37.4671749,48.8797255 C40.6461749,50.5197255 44.5801749,50.0027255 47.1871749,47.5237255 C49.4561749,45.3667255 51.6691749,43.1507255 53.8851749,40.9397255 L54.0011749,40.8167255 C54.2461749,40.5877255 55.6691749,39.2717255 56.1291749,38.7677255 C56.1291749,38.7677255 59.0161749,35.7577255 61.5071749,38.2487255 C63.0321749,39.7747255 62.6261749,42.9407255 61.6361749,44.0697255 C61.5201749,44.2017255 60.0801749,46.3637255 59.9261749,46.5947255 C56.6541749,51.4697255 53.3801749,56.3447255 50.1041749,61.2187255 C48.8761749,63.0467255 47.6371749,64.8667255 46.4171749,66.6997255 M14.5151749,80.3047255 C10.9661749,72.7017255 7.45417485,65.1777255 3.88917485,57.5387255 C6.34817485,56.3087255 8.72317485,55.1207255 11.2041749,53.8797255 C14.7591749,61.4977255 18.1981749,68.5087255 21.7551749,76.1287255 C19.2901749,77.3627255 16.9851749,79.0667255 14.5151749,80.3047255 M62.5731749,3.95672554 C64.5861749,5.07572554 66.4701749,6.12172554 68.3521749,7.16772554 C67.0881749,9.63472554 62.1901749,11.1377255 59.3171749,9.75372554 C60.3901749,7.84372554 61.4451749,5.96672554 62.5731749,3.95672554 M93.0561749,17.0417255 C83.1491749,11.5357255 73.2401749,6.03072554 63.3311749,0.526725545 C61.7251749,-0.365274455 61.0251749,-0.164274455 60.1241749,1.43672554 C56.5801749,7.73572554 53.0231749,14.0267255 49.5101749,20.3427255 C49.0801749,21.1157255 48.5471749,21.5157255 47.7101749,21.7557255 C44.4321749,22.6937255 41.1841749,23.7347255 37.9081749,24.6787255 C34.8971749,25.5467255 32.3811749,27.1437255 30.2591749,29.4437255 C24.4831749,35.7047255 18.6541749,41.9177255 12.8931749,48.1917255 C11.6321749,49.5647255 10.2671749,50.6847255 8.55617485,51.4637255 C6.12117485,52.5727255 3.75317485,53.8267255 1.36217485,55.0317255 C-0.0418251459,55.7397255 -0.315825146,56.4807255 0.335174854,57.8787255 C4.22117485,66.2237255 8.11417485,74.5647255 12.0121749,82.9037255 C12.6611749,84.2917255 13.4811749,84.5817255 14.8451749,83.9047255 C17.8331749,82.4197255 20.8091749,80.9087255 23.8001749,79.4297255 C24.3551749,79.1567255 24.9451749,78.9287255 25.5441749,78.7767255 C29.5251749,77.7697255 33.4921749,76.6907255 37.5041749,75.8237255 C42.1831749,74.8137255 46.2911749,72.9687255 49.0881749,68.7567255 C53.0011749,70.9287255 56.7821749,73.0327255 60.5681749,75.1267255 C62.1811749,76.0187255 62.8611749,75.8187255 63.7641749,74.2107255 C73.8451749,56.2687255 83.9241749,38.3257255 94.0021749,20.3827255 C94.9821749,18.6377255 94.8041749,18.0137255 93.0561749,17.0417255" id="Fill-1"></path>
        </g>
    </g>
</svg>