<?xml version="1.0" encoding="UTF-8" standalone="no"?>
<svg width="99px" height="63px" viewBox="0 0 99 63" version="1.1" xmlns="http://www.w3.org/2000/svg" xmlns:xlink="http://www.w3.org/1999/xlink">
    <!-- Generator: Sketch 48.2 (47327) - http://www.bohemiancoding.com/sketch -->
    <title>money</title>
    <desc>Created with Sketch.</desc>
    <defs></defs>
    <g id="SPR-Sovereign-1440" stroke="none" stroke-width="1" fill="none" fill-rule="evenodd" transform="translate(-972.000000, -2288.000000)">
        <g id="money" transform="translate(972.000000, 2288.000000)" fill="#32221E">
            <path d="M3.57579416,20.3774021 L3.57579416,58.5532107 C11.2153373,59.4630623 18.804778,59.7439342 26.3920403,59.2938885 C34.3518039,58.8232382 42.2963188,58.093405 50.2441013,57.4253853 C58.716871,56.7118187 67.1896406,56.5274626 75.6700346,57.2507892 C77.2188556,57.3830918 78.7665874,57.5099722 80.3796703,57.6455281 L80.3796703,19.5543064 C80.2674842,19.5120129 80.1825278,19.458875 80.0921255,19.4480305 C79.4898062,19.3786259 78.8863977,19.3211502 78.2840785,19.2549989 C69.7884359,18.3082761 61.2753664,18.3440629 52.7677428,18.971958 C45.7054677,19.4924929 38.6584411,20.2234106 31.5972551,20.762381 C23.3118253,21.394614 15.0209495,21.4087118 6.73769805,20.6495985 C5.69643724,20.5541671 4.65408725,20.4695802 3.57579416,20.3774021 L3.57579416,20.3774021 Z M0,17.7812346 C0.606676012,16.6252134 1.61199371,16.5189376 2.77306486,16.6675069 C8.92369222,17.4515625 15.1091735,17.8473859 21.3011899,17.6261586 C27.5465763,17.4038468 33.7908736,17.0004323 40.0199223,16.4929108 C48.9893603,15.7609087 57.9468172,14.7686392 66.9587334,15.0484266 C72.0550298,15.206756 77.1404343,15.7207841 82.2280171,16.1101008 C83.4892933,16.2066167 83.9968535,16.9136765 83.9979427,18.3646674 C84.0012102,25.8343424 83.9990318,33.3051019 83.9990318,40.7758613 C83.9990318,46.846599 84.0012102,52.9184211 83.9990318,58.9902431 C83.9979427,60.9671911 83.3095778,61.5679751 81.3610259,61.330481 C72.4667417,60.2471179 63.5474062,59.9879349 54.6128221,60.6602924 C47.1377459,61.2231207 39.6724723,61.9139138 32.1984852,62.4984311 C22.7596085,63.2369399 13.3250886,63.183802 3.90363883,62.1796035 C3.23814683,62.10803 2.57810076,61.9757274 1.91151957,61.931265 C1.02927977,61.8727048 0.431317237,61.4269969 0,60.700417 L0,17.7812346 Z M87.4046118,12.5086212 C77.5316547,11.3560881 67.816604,11.3999941 58.0939302,12.1562754 C49.5735225,12.820354 41.0596489,13.6084672 32.5305292,14.146316 C24.6177886,14.645747 16.7170271,14.1836361 8.84784695,13.2045317 C7.59004137,13.0475677 6.89525352,12.2836029 7.01286651,11.1958311 C7.13374653,10.080618 8.02128899,9.49117963 9.33136701,9.65912018 C18.4768659,10.8281181 27.6506791,11.04216 36.8375604,10.3583236 C45.3939054,9.72278392 53.9382712,8.9204013 62.4957052,8.31010755 C70.6273366,7.73054801 78.754612,7.99617947 86.8633742,8.8336869 C87.6866651,8.918206 88.507778,9.03894757 89.3278019,9.15859149 C90.3623606,9.31006728 90.9166663,9.91267748 90.9896299,10.9521526 C91.0070541,11.2079052 90.997253,11.4658531 90.997253,11.723801 C90.998342,25.2688099 90.998342,38.8138188 90.997253,52.35773 C90.997253,52.4224913 90.998342,52.4872527 90.997253,52.5509165 C90.9928969,54.1282404 90.3362244,55.0162398 89.1884088,54.999775 C88.0623733,54.9833103 87.4057008,54.0733579 87.4057008,52.4993269 C87.4035228,39.5975413 87.4046118,26.6968534 87.4046118,13.7950678 L87.4046118,12.5086212 Z M95.4375477,5.21770909 C86.4040622,4.18134545 77.485958,4.05370909 68.5602342,4.71807273 C59.6573691,5.38025455 50.7686544,6.24098182 41.8603467,6.81043636 C35.0452301,7.24570909 28.2170514,7.08534545 21.4139084,6.36970909 C19.954226,6.21589091 18.4945436,6.07625455 17.0348612,5.9268 C15.6524625,5.78389091 14.8774485,4.99625455 15.0211309,3.88789091 C15.1615477,2.79916364 16.0530316,2.21334545 17.3744741,2.38134545 C24.4769555,3.28134545 31.6110035,3.67516364 38.757025,3.36752727 C44.4564261,3.12316364 50.1525618,2.69770909 55.8334584,2.17952727 C65.2707785,1.31661818 74.7080986,0.470072727 84.1944013,0.840981818 C88.3960225,1.00461818 92.5889356,1.43116364 96.7807603,1.79552727 C98.531073,1.94825455 98.9566776,2.5068 98.9566776,4.27625455 C98.9577661,17.8668 98.9577661,31.4584364 98.9555891,45.0489818 C98.9555891,45.3358909 98.9642971,45.6271636 98.922934,45.9097091 C98.7912251,46.8206182 98.1207074,47.3998909 97.2226925,47.4075273 C96.3116156,47.4140727 95.5638141,46.7715273 95.4538753,45.8584364 C95.4157777,45.5431636 95.4375477,45.2191636 95.4375477,44.8995273 L95.4375477,6.42970909 L95.4375477,5.21770909 Z M38.9674357,28.3823248 C38.6765879,28.5101812 38.4071591,28.6269197 38.1388576,28.7469935 C36.2720206,29.589734 35.1841596,30.9917073 35.0206986,33.0329627 C34.8538557,35.1209134 35.6959616,36.7052211 37.535743,37.7547554 C38.1918415,38.1283185 38.8693591,38.4674159 39.5401128,38.8154077 C40.561462,39.3446221 41.6109942,39.827141 42.6019059,40.4074979 C43.4440118,40.9000231 43.5341971,42.0607369 42.7912952,42.639982 C41.9108606,43.3270712 40.8759835,43.2503574 39.8557615,43.019104 C38.9696903,42.8178692 38.7340811,42.1441215 38.6123308,41.3425174 C38.4567611,40.3218897 37.6450928,39.7204087 36.6688362,39.8004579 C35.7015981,39.8793954 35.0240806,40.6165154 35.0173167,41.6527082 C35.0049162,43.3782138 35.6858157,44.8535656 37.1975479,45.6740702 C38.4082864,46.3311409 39.2267186,46.9126096 39.061003,48.4646752 C38.9651811,49.3641173 39.963984,50.0300824 40.888384,49.9989521 C41.812784,49.9667101 42.5376488,49.2629439 42.6097971,48.3123593 C42.6312162,48.0210691 42.6492532,47.7219963 42.6131791,47.4340414 C42.5376488,46.8492373 42.8104596,46.6302137 43.3459352,46.3878425 C44.1688766,46.0153912 45.0380381,45.5684496 45.6400254,44.926944 C47.8033469,42.6199697 47.3287464,39.0711205 44.6220581,37.4134344 C43.0021035,36.4206016 41.2412342,35.6545749 39.5637864,34.7495739 C38.6168401,34.2381483 38.3564298,33.4220909 38.9054332,32.6404991 C39.5976059,31.6543371 40.678703,31.746616 41.6966703,31.8733606 C42.5579406,31.9789812 43.1148352,32.4381524 43.220803,33.3898488 C43.3617176,34.6661893 44.212842,35.3521667 45.3209947,35.1976273 C46.3919459,35.0464232 47.0356439,34.0858324 46.8676737,32.8617463 C46.6095181,30.9783658 45.670463,29.5119084 43.8577371,28.8270427 C42.8532976,28.4479207 42.5105932,27.9709607 42.5917601,26.9314325 C42.6785635,25.8163023 41.8488581,25.01581 40.8241269,25.0002449 C39.8388518,24.9835679 39.0170376,25.8207495 38.9708176,26.906973 C38.9505259,27.3917156 38.9674357,27.8786817 38.9674357,28.3823248 Z M76.8467859,25.9768051 C77.987445,26.1395617 78.9055365,25.4268 78.992477,24.4345459 C79.0852135,23.3682095 78.313182,22.4915688 77.0855824,22.4354458 C73.3622114,22.2637095 69.6353627,22.1413614 65.9096732,22.0021765 C65.0425868,21.9696252 64.2624409,22.3007507 64.0630574,23.093207 C63.9158382,23.6813757 64.0282812,24.5108732 64.3806799,24.984551 C64.684392,25.3942487 65.4842445,25.6131282 66.0777581,25.6389448 C69.665502,25.7960891 73.2567236,25.8735388 76.8467859,25.9768051 Z M14.7211975,55.9347907 C14.7223464,55.9546956 14.7223464,55.9746005 14.7234953,55.9945054 C16.468699,55.9945054 18.2139027,56.009987 19.9579574,55.9889763 C21.1872978,55.9746005 22.0214109,55.2093672 21.9995815,54.1754176 C21.9800499,53.1912303 21.1436389,52.4525369 19.991276,52.4094096 C16.4032107,52.2722869 12.8151455,52.1329525 9.22708024,52.0024647 C7.93454953,51.9560199 7.10618096,52.5686489 7.00852308,53.6136568 C6.90971629,54.6852045 7.67604339,55.481401 8.99270134,55.5809256 C10.8999022,55.7257891 12.8116987,55.8197845 14.7211975,55.9347907 Z" id="Combined-Shape"></path>
        </g>
    </g>
</svg>