<?xml version="1.0" encoding="UTF-8" standalone="no"?>
<svg width="101px" height="101px" viewBox="0 0 101 101" version="1.1" xmlns="http://www.w3.org/2000/svg" xmlns:xlink="http://www.w3.org/1999/xlink">
    <!-- Generator: Sketch 48.2 (47327) - http://www.bohemiancoding.com/sketch -->
    <title>mission</title>
    <desc>Created with Sketch.</desc>
    <defs></defs>
    <g id="AboutUs-page-1440-" stroke="none" stroke-width="1" fill="none" fill-rule="evenodd" transform="translate(-670.000000, -612.000000)">
        <g id="mission" transform="translate(670.000000, 612.000000)">
            <path d="M5.73733742,62.2643889 C7.6250059,62.2643889 9.18593612,62.2715942 10.7465231,62.2551249 C10.9342604,62.2530663 11.1638695,62.170034 11.3008112,62.0444562 C12.3373129,61.0940453 13.355281,60.123734 14.3790837,59.1595987 C14.3159326,59.0717628 14.2527815,58.983927 14.1896304,58.8960912 C12.6287002,58.8960912 11.06777,58.8806513 9.50752619,58.9122173 C9.26967996,58.9170208 8.99270752,59.0916631 8.80840243,59.2666486 C7.84740757,60.1772589 6.91078079,61.1132593 5.73733742,62.2643889 L5.73733742,62.2643889 Z M14.5115637,42.0830809 C13.3401796,40.9319514 12.3980615,40.0000683 11.4470198,39.0774491 C11.3028705,38.938147 11.1192519,38.742575 10.9510778,38.7398302 C9.30468763,38.7144401 7.65761108,38.7247334 5.74832022,38.7247334 C6.91249685,39.8669421 7.84946684,40.8039718 8.81114813,41.7152684 C8.99511,41.8899107 9.2734553,42.0621513 9.51164474,42.0669548 C11.0708589,42.0981777 12.6314459,42.0830809 14.5115637,42.0830809 L14.5115637,42.0830809 Z M10.2111117,55.4845619 L16.8086847,55.4845619 L16.8086847,52.2397833 L10.2111117,52.2397833 L10.2111117,55.4845619 Z M10.1740448,48.7328697 L16.773677,48.7328697 L16.773677,45.5004431 L10.1740448,45.5004431 L10.1740448,48.7328697 Z M4.25294357,59.1249447 C5.05262858,58.2850147 5.71228291,57.6615863 6.2799563,56.9633602 C6.53667922,56.6473571 6.74157705,56.1834742 6.74535239,55.7844388 C6.78104648,52.2507628 6.77280938,48.7167436 6.75496233,45.1827245 C6.75324627,44.8602024 6.68666306,44.4635688 6.49412087,44.2295686 C5.85608893,43.4524275 5.14666879,42.733958 4.46436244,41.9931864 C4.36757653,42.0467114 4.27079061,42.0998932 4.1740047,42.1534182 C3.15637979,47.7110922 3.12754994,53.2677368 4.25294357,59.1249447 L4.25294357,59.1249447 Z M20.2723847,55.4149108 C20.3712299,55.475641 20.3997165,55.5082364 20.4282032,55.5082364 C25.5784492,55.519902 30.7286953,55.5305384 35.8792845,55.5315677 C36.0745724,55.5319109 36.3319817,55.5010311 36.4558814,55.3785413 C38.0909455,53.7649013 39.7074762,52.1327334 41.3597009,50.47346 C39.8427019,48.957949 38.4355308,47.4932182 36.9518234,46.1104903 C36.569828,45.7543435 35.9496431,45.4767686 35.4344812,45.4692202 C31.7562733,45.4150091 28.0766926,45.4403991 24.3974552,45.4403991 L20.2723847,45.4403991 L20.2723847,55.4149108 Z M37.9207122,58.718704 C40.9447571,63.7750963 47.9775234,67.1612356 55.0233318,64.9152463 C61.8590942,62.7361633 65.9776436,56.5059963 65.6110927,49.7457265 C65.2050724,42.2566939 59.6879322,36.2272455 51.5359501,35.3409958 C46.6643926,34.8115792 39.3749033,38.4903902 37.99313,42.2988962 C39.9309075,44.2443223 41.8776085,46.1619566 43.7745437,48.1269399 C44.2824982,48.6532685 44.7983465,48.8491836 45.5173766,48.8272246 C47.1500382,48.777817 48.7851023,48.8117847 50.4232553,48.8117847 L50.4232553,52.1673874 C48.6268814,52.1673874 46.9118487,52.1382231 45.1995618,52.1890032 C44.79766,52.201012 44.3061798,52.3828596 44.0223431,52.6583759 C41.962382,54.6556113 39.9453224,56.6971078 37.9207122,58.718704 L37.9207122,58.718704 Z M21.4756876,58.8957481 C25.6144865,73.2521004 40.1461017,82.9819757 55.6400846,80.3139628 C70.8872977,77.6888385 82.4219818,63.6532927 80.5662321,47.0183558 C78.9349433,32.3930063 66.4131802,19.8952735 49.7690924,20.2486754 C35.0171348,20.5615905 24.1462237,31.4563196 21.5731599,42.0844533 C25.4384185,42.0844533 29.2902919,42.0693566 33.141822,42.099207 C33.776765,42.1040105 34.1007576,41.9259371 34.4250933,41.3474559 C38.9891325,33.2082324 49.3606696,29.7026913 57.7172063,33.4384583 C67.9991649,38.0354281 72.0470126,49.6187763 66.6273448,59.4982469 C63.530882,65.1423843 58.5601361,68.3988285 52.1197545,68.8881015 C44.2804389,69.483395 38.3384017,66.1597014 34.2912405,59.4272234 C34.1549851,59.2000855 33.8567335,58.9201088 33.6322726,58.9183933 C29.6067337,58.8875135 25.5811949,58.8957481 21.4756876,58.8957481 L21.4756876,58.8957481 Z M6.02941121,65.6241088 C11.1171926,82.4563332 30.4709427,100.36935 56.4620784,97.1722634 C79.1034606,94.3872505 98.2787402,74.7682976 97.5641719,49.0464711 C96.8997126,25.1359151 78.1428089,4.52091779 52.2439974,3.44870324 C29.4354707,2.50412512 11.282621,18.207522 6.04657184,35.3571219 C7.1095008,35.3571219 8.17654831,35.4778962 9.20652887,35.3331043 C11.5746948,34.9996027 13.3830812,35.7390019 14.8551194,37.6442842 C15.8041018,38.8726132 16.9977947,39.9122324 18.1684924,41.1258078 C23.1011417,24.7114897 39.3779922,14.5040072 56.0100676,17.2866184 C70.4980948,19.7106811 82.6152104,31.406912 84.0457199,47.6589397 C85.3914559,62.9502631 76.1631595,77.8398063 60.0874315,82.7445445 C52.8758515,84.9449003 45.6399034,84.6831084 38.6181199,81.9258872 C28.3821517,77.9070556 21.6448913,70.5017415 18.1657467,59.9490917 C16.5066577,61.6179722 14.931999,63.1588731 13.4125975,64.7522697 C12.8102596,65.3839328 12.1753166,65.6718009 11.2905149,65.6416074 C9.54493635,65.5822496 7.7959257,65.6241088 6.02941121,65.6241088 L6.02941121,65.6241088 Z M2.17685145,35.3262422 C3.38049752,32.5999008 4.41802876,29.8872838 5.74042633,27.3211741 C10.2780381,18.5159767 16.9195423,11.6939473 25.4929893,6.73088064 C31.5276938,3.23769142 38.0164684,1.10218315 44.9253351,0.324698939 C52.5302366,-0.531014047 59.9772603,0.30136755 67.2056578,2.86061501 C73.6378023,5.13782715 79.3931319,8.55724801 84.4345796,13.1655404 C92.9527694,20.951362 98.3511581,30.5319849 100.22956,41.8840779 C102.790611,57.3617093 98.9610466,71.2747653 88.8252965,83.2719025 C81.0364331,92.4915752 71.026642,98.1195864 59.1477158,100.217696 C49.1646953,101.981274 39.4716892,100.753632 30.1843603,96.6304949 C21.9218638,92.9623202 15.1104695,87.467092 9.75738486,80.1901006 C6.73711529,76.0844624 4.38027539,71.6154722 2.7764436,66.76769 C2.5447752,66.0677483 2.35600835,65.5558302 1.41045805,65.5462232 C0.975607872,65.5417628 0.310805354,64.9440675 0.179354985,64.4908209 C0.0334896936,63.9881668 0.188278509,63.1437764 0.54830837,62.8034126 C1.24605928,62.1436146 1.28964726,61.5219018 1.0977915,60.6792269 C0.0914925978,56.255527 -0.193030524,51.7594312 0.122038506,47.2506404 C0.298792918,44.7226158 0.82836973,42.2199813 1.16403151,39.7012206 C1.20727628,39.3762967 1.15648083,38.9093258 0.952269425,38.7048331 C0.294331156,38.0453783 -0.22186037,37.3866096 0.146749802,36.3991429 C0.52874526,35.3759929 1.42315691,35.328987 2.17685145,35.3262422 L2.17685145,35.3262422 Z" id="Fill-1" fill="#FFFFFF" fill-rule="evenodd"></path>
            <path d="M16.0155265,69.8984776 C23.2058811,84.7841767 37.5936688,90.6938776 51.5306122,90.6938776 C73.7290779,90.6938776 91.7244898,72.6984656 91.7244898,50.5 C91.7244898,28.3015344 73.7290779,10.3061224 51.5306122,10.3061224 C37.6842979,10.3061224 25.4732457,17.3075122 18.244583,27.9631645" id="Oval" stroke="#FFFFFF" stroke-width="3"></path>
            <path d="M29.4134857,62.5596031 C33.7961086,71.6326475 42.565669,75.2346939 51.0604334,75.2346939 C64.5907125,75.2346939 75.5591709,64.2662355 75.5591709,50.7359563 C75.5591709,37.2056772 64.5907125,26.2372188 51.0604334,26.2372188 C42.6209087,26.2372188 35.1780995,30.504665 30.7721272,36.999436" id="Oval" stroke="#FFFFFF" stroke-width="3"></path>
        </g>
    </g>
</svg>