<?xml version="1.0" encoding="UTF-8" standalone="no"?>
<svg width="92px" height="109px" viewBox="0 0 92 109" version="1.1" xmlns="http://www.w3.org/2000/svg" xmlns:xlink="http://www.w3.org/1999/xlink">
    <!-- Generator: Sketch 48.2 (47327) - http://www.bohemiancoding.com/sketch -->
    <title>pilosophy</title>
    <desc>Created with Sketch.</desc>
    <defs></defs>
    <g id="AboutUs-page-1440-" stroke="none" stroke-width="1" fill="none" fill-rule="evenodd" transform="translate(-1136.000000, -608.000000)">
        <g id="pilosophy" transform="translate(1136.000000, 608.000000)" fill="#FFFFFF">
            <path d="M58.5530836,63.6094183 C57.6141723,63.6298 56.8241023,64.4298901 56.8180448,65.3665811 C56.8111219,66.3609479 57.6384023,67.1848889 58.6223121,67.1645072 C59.5945396,67.1445592 60.4161951,66.2633759 60.3647064,65.2963292 C60.3149485,64.3622402 59.4846394,63.5894702 58.5530836,63.6094183 Z M44.5330179,67.1705784 C45.4645737,67.1718794 46.2806044,66.3821969 46.3130553,65.4481079 C46.3468041,64.4732555 45.5134663,63.60725 44.5416715,63.6081173 C43.5733381,63.6089846 42.7300486,64.4771583 42.7586054,65.4437713 C42.7867294,66.3778603 43.5997314,67.1692774 44.5330179,67.1705784 Z M70.8329183,65.41038 C71.8073092,65.4398685 72.6609829,64.6072543 72.6605502,63.6276317 C72.6601176,62.6983129 71.8587979,61.8696016 70.9389244,61.8474853 C69.9671296,61.8245017 69.1108598,62.6605851 69.1069657,63.6363048 C69.1030716,64.5656236 69.8970358,65.3817589 70.8329183,65.41038 Z M30.5047313,60.1141734 C30.5073274,59.1371528 29.6514903,58.2993348 28.6796955,58.3279559 C27.7429476,58.3557097 26.9507141,59.1688095 26.9537429,60.0994292 C26.9572043,61.0799191 27.8061186,61.911666 28.7800768,61.8886824 C29.7073058,61.866566 30.5025679,61.0486961 30.5047313,60.1141734 Z M44.5784491,16.1118164 C45.5666857,16.0836289 46.3693034,15.2171898 46.3121899,14.2414701 C46.2572398,13.3056465 45.4299594,12.5389476 44.4949422,12.5575947 C43.5188206,12.5766755 42.7114435,13.4530886 42.7676916,14.4327112 C42.8217764,15.3798098 43.6408358,16.1391365 44.5784491,16.1118164 Z M79.616282,46.0087356 C78.6799668,46.030852 77.8907621,46.8426508 77.8937908,47.7806426 C77.8972522,48.7711066 78.7392437,49.5967823 79.7153653,49.5664265 C80.6516805,49.5373718 81.4395871,48.7277412 81.4426159,47.791484 C81.4460773,46.8079585 80.6036532,45.985752 79.616282,46.0087356 Z M60.3651391,14.3893459 C60.3945612,13.4548232 59.6321826,12.6187398 58.6958673,12.5580284 C57.7335914,12.4955823 56.8401113,13.3147532 56.8106892,14.2861364 C56.7829978,15.2228273 57.5436458,16.0563088 58.4816917,16.1165866 C59.4521885,16.1790326 60.334419,15.3702694 60.3651391,14.3893459 Z M34.0176441,23.1695223 C34.0375473,22.2397698 33.2556982,21.4028191 32.3267385,21.3594538 C31.3480208,21.3139202 30.4822321,22.12702 30.4644923,23.1088109 C30.4476178,24.0442008 31.2177847,24.8703102 32.1540999,24.9210476 C33.1159432,24.973086 33.9964429,24.145242 34.0176441,23.1695223 Z M25.229521,33.7480586 C25.2494242,32.7601966 24.4294993,31.9245469 23.4447242,31.9284497 C22.5066782,31.9323526 21.7053586,32.7194332 21.681994,33.660027 C21.6581967,34.636614 22.4923999,35.4878752 23.4693868,35.4831051 C24.4057021,35.4783349 25.2104832,34.6847495 25.229521,33.7480586 Z M76.1738957,23.1222541 C76.1578866,22.1513046 75.2782522,21.3143539 74.3190051,21.3568519 C73.401295,21.3976153 72.6060328,22.2423718 72.6190132,23.1634512 C72.6328588,24.1426401 73.5003783,24.9652802 74.4713077,24.9201803 C75.4058922,24.8772486 76.1890394,24.0498383 76.1738957,23.1222541 Z M40.9958751,40.7472213 C40.9958751,42.6886867 41.0979872,44.6375242 40.9647223,46.5698829 C40.852226,48.2060564 41.3190856,49.4085768 42.5851015,50.4692925 C43.2782517,51.0499542 43.8887603,51.3621845 44.7947881,51.3530777 C48.8520098,51.311447 52.9131257,51.2303539 56.9651553,51.3803979 C58.8780248,51.4510834 60.4027821,51.0712032 61.46717,49.4493402 C61.7808616,48.9714543 62.0941205,48.3764821 62.1010433,47.8313801 C62.1529647,43.6193065 62.0339782,39.4024627 62.1737332,35.194292 C62.2351735,33.3508323 61.7700446,31.9800545 60.3387458,30.8317408 C59.79011,30.3920164 59.3132989,30.1404976 58.6054376,30.1452678 C54.3656258,30.1725879 50.1227852,30.2411051 45.8864347,30.1166466 C44.1760585,30.0663429 42.8931682,30.458799 41.8097425,31.8148326 C41.3061053,32.445798 40.9547707,32.9774568 40.975972,33.8239479 C41.0339508,36.1301156 40.9958751,38.439319 40.9958751,40.7472213 Z M69.1498008,49.5599217 L66.1630245,49.5599217 C64.2527511,51.6601042 62.5332886,53.4996611 60.3205733,55.3001892 C60.3205733,56.5603854 60.2742767,58.2091349 60.3590816,59.8509459 C60.3763887,60.1857262 60.830268,60.5890237 61.1798718,60.8002128 C63.2662452,62.0591081 64.2696255,64.4316248 63.6392136,66.7482002 C63.0131286,69.0487304 60.9990124,70.6207233 58.6491381,70.6419723 C56.2499385,70.6640886 54.170488,69.0860246 53.5353167,66.7607761 C52.9031741,64.4476699 53.8676134,62.0018658 56.0132637,60.8522512 C56.7315092,60.4676008 56.8933307,60.042187 56.8699661,59.3140833 C56.8228042,57.8565749 56.8556877,56.3964645 56.8556877,54.8687043 L46.2706528,54.8687043 C46.2706528,56.6132911 46.2360386,58.325354 46.3069978,60.0326466 C46.3178147,60.2976087 46.7777514,60.6029006 47.090145,60.7867696 C49.2344972,62.049134 50.2331181,64.4446343 49.5715534,66.8158501 C48.9277285,69.1246197 46.8370283,70.6770982 44.4183582,70.6415386 C42.056369,70.6068464 40.0340319,68.9593979 39.439965,66.5864475 C38.8761856,64.3344864 39.8934116,61.9693419 42.0182933,60.8119214 C42.6188504,60.4849469 42.8486024,60.1458301 42.8243724,59.4649946 C42.771153,57.9658555 42.8079307,56.4636808 42.8079307,55.3578651 C40.6540595,53.5031303 38.8770509,51.7242849 36.9892767,49.5122199 C34.5489727,48.7333787 32.7122546,50.7594065 30.682562,52.1562035 C29.9997961,52.6258499 30.4882896,55.0707867 31.2311977,55.4953332 C33.3764153,56.7221381 34.4105158,59.0864153 33.8051992,61.3813081 C33.1812775,63.7468863 31.1476909,65.3531378 28.7679618,65.3609436 C26.3583779,65.3683157 24.3057534,63.7950218 23.6753416,61.4571974 C23.0345454,59.0807779 24.0258108,56.7173679 26.2657848,55.5044399 C26.8438427,55.1913423 27.023404,54.8582966 27.0108564,54.2329687 C26.985761,52.9541254 26.6461088,51.4575882 27.1847929,50.4545483 C27.7230444,49.4523757 29.2261678,49.0061466 30.2178658,48.2056228 C32.320681,46.5087378 34.5939712,45.4684038 37.5396432,46.2025786 L37.5396432,40.747655 L37.5396432,35.5091243 C37.1584538,35.4813704 36.8434642,35.4393061 36.5289073,35.4384388 C34.1872539,35.4323676 31.8456005,35.4592541 29.5048124,35.4202253 C28.7666638,35.4080831 28.3634078,35.613201 27.9809205,36.3100817 C26.7105778,38.6227543 23.9712933,39.5407981 21.5482964,38.588062 C19.2079411,37.6678499 17.8026029,35.1413863 18.2962885,32.7428505 C18.8375687,30.1114428 21.1160511,28.3022416 23.7532236,28.4583568 C25.4644652,28.559398 26.9922512,29.2675537 27.7498704,30.7866409 C28.4127331,32.1175225 29.3027518,32.0411996 30.5099235,31.8937575 C30.5099235,30.771463 30.5709311,29.6751877 30.4718478,28.5932229 C30.4437237,28.2814263 30.0006615,27.9410085 29.6722588,27.7337223 C27.7602547,26.5246972 26.8282663,24.8113333 27.0303269,22.5541684 C27.2168111,20.4717657 28.7562795,18.690752 30.7561173,18.1066211 C33.3058888,17.3616049 35.9889252,18.604455 37.0411981,21.0181688 C38.0977978,23.4409892 37.2475855,26.3286859 34.9292967,27.602759 C34.0834112,28.0672016 33.9034171,28.5776114 33.9583672,29.4119602 C34.0115866,30.2098821 33.9700496,31.0138751 33.9700496,31.8928902 L37.393398,31.8928902 C37.7291561,30.7836053 41.638402,26.8690178 42.8023059,26.5446452 C42.8023059,24.3343148 42.8373528,22.1001335 42.7642302,19.8698551 C42.7534132,19.539845 42.2904478,19.1304764 41.9395459,18.9210219 C39.8237504,17.6556218 38.8359465,15.2501475 39.5091935,12.8659222 C40.1538837,10.5831717 42.2904478,9.02852495 44.6987336,9.08967005 C47.041685,9.14908054 49.0125334,10.7488272 49.6113598,13.0775449 C50.1937444,15.3425156 49.2106999,17.7714072 47.1122115,18.8780902 C46.3870432,19.2601387 46.238202,19.6950928 46.2533457,20.4162581 C46.2948828,22.3950177 46.277143,24.3755119 46.2875273,26.3551387 C46.2875273,26.421054 46.3325258,26.4869693 46.3814184,26.6205345 L56.8483322,26.6205345 C56.8483322,24.2987553 56.879485,22.0008269 56.8085258,19.7063678 C56.7998723,19.4214577 56.2867162,19.0944831 55.9466312,18.8867633 C53.9775136,17.6872785 52.9641817,15.4101655 53.4682516,13.2353947 C54.0013109,10.9361654 55.8951426,9.26356499 58.1541545,9.09747581 C60.4810968,8.92618279 62.5942962,10.2436212 63.4561909,12.4040815 C64.4375046,14.8637625 63.4825842,17.6057517 61.1128067,18.917119 C60.5170091,19.2462618 60.2872571,19.5888478 60.3015354,20.2683824 C60.3452359,22.3546879 60.3171119,24.4427281 60.3171119,26.1192314 C62.483098,27.9800373 64.2376073,29.7792645 66.2127825,31.9974006 C68.5834253,32.7693033 70.4205762,30.7280977 72.4346923,29.3204594 C72.983328,28.9371099 72.7864595,28.2185466 72.0054757,27.7857607 C68.9408174,26.0893093 68.1961785,22.2822678 70.415384,19.7458303 C71.8743743,18.0788673 73.7301303,17.4873644 75.8645309,18.1152942 C77.9963355,18.7423567 79.2800912,20.2462661 79.5795044,22.4318782 C79.8867058,24.672998 79.0036099,26.5008462 77.048338,27.6292119 C76.2734117,28.0763083 75.9977958,28.5498576 76.134522,29.3438766 C76.362976,30.6699881 75.8861648,31.5910675 74.6439463,32.1170889 C74.4786633,32.1873407 74.3363122,32.3135338 74.1840095,32.4150086 C71.6242864,34.1175311 69.2830657,36.4180614 65.6753964,35.239392 L65.6753964,45.9705742 C65.9185614,45.9961597 66.1954754,46.049499 66.4732546,46.0499327 C68.851253,46.0560038 71.2292514,46.0343212 73.6072497,46.0638096 C74.3267933,46.0724827 74.7529811,45.9076945 75.1384972,45.1899984 C76.3789851,42.8790605 79.1334133,41.9519099 81.562035,42.8955393 C83.9075825,43.8070783 85.3120554,46.3166294 84.8278887,48.7299095 C84.3069443,51.3283595 82.121055,53.1119751 79.4968629,53.0313156 C77.7341326,52.977109 76.1868761,52.2511735 75.3816623,50.712572 C74.708848,49.4267902 73.8560396,49.3973018 72.6151191,49.6119601 C72.6151191,52.4693011 72.5908891,55.3188363 72.6510313,58.1666369 C72.6570888,58.4623884 73.1139968,58.8288253 73.4432648,59.0239693 C75.575502,60.2872011 76.5754209,62.683135 75.9177503,65.0604219 C75.2808483,67.3605185 73.171543,68.922971 70.7602284,68.8809066 C68.470929,68.8405769 66.4650338,67.2707523 65.8437081,65.0326681 C65.2085368,62.7447138 66.0976901,60.331 68.190121,59.1735796 C69.016536,58.7160755 69.1839824,58.2104359 69.1675406,57.3639448 C69.1182153,54.802789 69.1498008,52.2403322 69.1498008,49.5599217 Z M0.5445277,68.2525203 C0.0780488263,68.1171468 -0.140505164,67.5808427 0.0966215962,67.156557 C1.95692207,63.8219567 3.78612394,60.5448794 5.6148939,57.2673696 C7.41256526,54.0460852 9.23096901,50.8360459 10.9854479,47.5914063 C11.2575606,47.088405 11.4009596,46.4050498 11.3275324,45.8410655 C9.20548545,29.5413145 17.4716638,13.3280642 32.0327155,5.30080341 C56.1842272,-8.01337746 86.3403587,6.36000393 90.8544056,33.6604758 C92.7337108,45.0275269 92.2227437,56.4166356 86.9977484,67.1159017 C83.7466498,73.7725596 79.2105746,79.367422 73.30357,83.8278283 C72.5567718,84.3918126 72.2708376,84.9640144 72.2760207,85.9073041 C72.3192131,93.1487064 72.2997765,100.390541 72.2997765,107.632376 L72.2997765,108.227501 C72.2997765,108.645731 71.9615793,108.984814 71.543908,108.984814 L69.5929033,108.984814 C69.1756638,108.984814 68.8370347,108.644434 68.8370347,108.226203 L68.8370347,100.19159 C68.8374667,94.7420485 68.8577671,89.2925072 68.81803,83.8429659 C68.812415,83.0454299 69.0862554,82.6073041 69.7142742,82.1613932 C79.6126967,75.1301874 85.8354385,65.6453906 87.5294479,53.6174744 C88.7293352,45.1001874 89.0744432,36.4107641 85.9002272,28.1564391 C80.5089408,14.1368453 70.2425183,5.82586239 55.3579549,4.02491874 C35.939908,1.67512844 17.9692413,15.6566619 14.8926404,34.9774482 C14.2836263,38.8003447 14.3363211,42.6206461 14.8844338,46.4495976 C14.9690911,47.0403971 14.8624056,47.7678676 14.5781991,48.2851415 C11.5344244,53.822481 8.43665915,59.3299777 5.35487512,64.8461245 C5.32204883,64.90581 5.28922254,64.9654954 5.25596432,65.0264784 C5.02963568,65.4460066 5.24084695,65.968038 5.69523192,66.1107641 C6.1496169,66.2530577 6.59061221,66.3905937 7.03419906,66.5190472 C9.76612394,67.3105282 12.491138,68.1279594 15.2390441,68.8584574 C15.9892977,69.0578414 16.1935981,69.3666488 16.1901427,70.122232 C16.1620676,76.1932805 16.1810723,82.2647615 16.1858235,88.33581 L16.1858235,88.9759148 C16.1858235,89.3941455 16.5244526,89.733228 16.9421239,89.733228 L32.8754009,89.733228 C33.2930723,89.733228 33.6317014,90.0723106 33.6317014,90.4905413 L33.6317014,108.233556 C33.6317014,108.651786 33.2930723,108.990869 32.8754009,108.990869 L31.0414479,108.990869 C30.6237765,108.990869 30.2851474,108.651786 30.2851474,108.233556 L30.2851474,94.0236606 C30.2851474,93.6054299 29.9469502,93.2667798 29.5292789,93.2667798 L13.4828376,93.2667798 C13.0647343,93.2667798 12.7256732,92.9259672 12.7256732,92.5073041 L12.7256732,89.1039358 C12.7239455,83.6907248 12.704077,78.2779463 12.7403587,72.8651678 C12.7459737,72.0338965 12.537354,71.6731887 11.6912131,71.443097 C7.96197371,70.4301743 4.25735399,69.326426 0.5445277,68.2525203 Z" id="Combined-Shape"></path>
        </g>
    </g>
</svg>