<?xml version="1.0" encoding="UTF-8" standalone="no"?>
<svg width="384px" height="109px" viewBox="0 0 384 109" version="1.1" xmlns="http://www.w3.org/2000/svg" xmlns:xlink="http://www.w3.org/1999/xlink">
    <!-- Generator: Sketch 48.2 (47327) - http://www.bohemiancoding.com/sketch -->
    <title>Page 1</title>
    <desc>Created with Sketch.</desc>
    <defs>
        <polygon id="path-1" points="1.00750842e-15 48.1756498 1.00750842e-15 0.178988476 33.5375297 0.178988476 33.5375297 48.1756498 0 48.1756498"></polygon>
        <polygon id="path-3" points="1.00750842e-15 48.1756498 1.00750842e-15 0.178988476 33.5375297 0.178988476 33.5375297 48.1756498 0 48.1756498"></polygon>
    </defs>
    <g id="SPR-Sovereign-1440" stroke="none" stroke-width="1" fill="none" fill-rule="evenodd" transform="translate(-528.000000, -280.000000)">
        <g id="Page-1" transform="translate(528.000000, 280.000000)">
            <path d="M79.8713061,25.2407546 C79.7503355,23.9856894 79.6466464,22.209815 79.4018249,20.4510162 C78.7508877,15.7551942 77.2041919,11.3838108 74.3037772,7.55600445 C72.2415161,4.83527366 69.678091,2.66950364 66.3024345,1.82425569 C59.0009933,-0.00284595271 52.1287098,3.02240178 49.0439589,10.5101034 C47.2582021,14.8359515 46.8952902,19.3496325 47.2610823,23.9629218 C47.632635,28.6587438 48.8913055,33.0870462 51.2531129,37.1852181 C53.4507459,40.9959488 56.3137173,44.1634942 60.5304076,45.8340684 C63.9060641,47.1716662 67.3681281,47.30258 70.8100304,46.0133634 C74.1597646,44.7554523 76.2508282,42.2339382 77.6506311,39.0976983 C79.5515981,34.845845 79.8857074,30.329318 79.8713061,25.2407546 M65.0351232,0.204908595 C68.949387,0.224830264 72.6879553,0.936318442 76.1471391,2.85164462 C80.0815646,5.03164439 82.8034036,8.27033858 84.6266037,12.2859779 C86.3201925,16.0141759 87.0748187,19.9558204 86.9941717,24.0169949 C86.8645603,30.4033128 85.0211984,36.2033644 80.5280038,40.9760271 C76.9795322,44.7497604 72.5554637,46.881379 67.4228529,47.664016 C64.0615977,48.1734415 60.7089833,48.1250603 57.4110937,47.3708829 C49.4615956,45.555165 44.3462664,40.5889776 41.5841038,33.1240436 C40.1439773,29.2279343 39.7234604,25.1923734 40.1698996,21.0885096 C41.290318,10.771931 47.9955468,3.30130514 58.1253964,1.01600512 C60.3777542,0.506579583 62.7078789,0.330130514 65.0034405,0 C65.0120812,0.0683028651 65.0236022,0.13660573 65.0351232,0.204908595" id="Fill-1" fill="#231F20"></path>
            <g id="Group-5">
                <mask id="mask-2" fill="white">
                    <use xlink:href="#path-1"></use>
                </mask>
                <g id="Clip-4"></g>
                <path d="M30.3724833,12.5322833 C29.0578167,10.0191167 27.33515,7.99045 25.4084833,6.12328333 C22.4448167,3.25311667 18.9739833,1.45111667 14.82315,1.23295 C11.8679833,1.07711667 9.06865,1.65228333 7.17315,4.21645 C4.45031667,7.90545 5.36548333,13.4587833 9.07148333,16.2836167 C11.4429833,18.0941167 14.20265,18.9611167 17.0614833,19.5872833 C20.3339833,20.3041167 23.56965,21.1342833 26.5729833,22.6812833 C29.61315,24.2481167 32.0044833,26.40145 33.0358167,29.7986167 C33.59115,31.6261167 33.59965,33.4932833 33.4664833,35.36895 C33.30215,37.64695 32.7723167,39.8257833 31.5369833,41.78645 C29.7548167,44.6141167 27.12265,46.28295 24.0059833,47.2547833 C20.5889833,48.3172833 17.1039833,48.3286167 13.5764833,47.9461167 C10.2218167,47.5806167 6.97481667,46.8411167 3.92331667,45.3847833 C2.71065,44.80395 1.57731667,44.0616167 0.426983333,43.3561167 C0.251316667,43.24845 0.0983166667,42.9537833 0.0954833333,42.7441167 C0.0473166667,38.88795 0.02465,35.0317833 -0.00085,31.1756167 C-0.00085,31.13595 0.04165,31.0991167 0.0388166667,31.1047833 C0.820816667,32.5866167 1.50365,34.1591167 2.42165,35.58145 C5.84148333,40.8882833 10.4314833,44.6991167 16.6789833,46.2092833 C19.4443167,46.87795 22.2493167,46.9261167 24.98915,46.0052833 C29.0209833,44.6481167 30.34415,41.5286167 30.1174833,37.8906167 C29.8624833,33.83045 27.2473167,31.4901167 23.9379833,29.7192833 C20.9374833,28.1156167 17.67065,27.2797833 14.4009833,26.45245 C11.4458167,25.7016167 8.58131667,24.7241167 6.07665,22.9051167 C2.43865,20.2587833 1.23731667,16.5896167 1.48665,12.2546167 C1.85215,5.92778333 6.51865,1.92145 12.5479833,0.700283333 C18.5064833,-0.50955 24.2184833,0.43395 29.6868167,3.03778333 C30.1968167,3.28145 30.39515,3.57895 30.38665,4.15978333 C30.3554833,6.89111667 30.3724833,9.62528333 30.3724833,12.5322833" id="Fill-3" fill="#231F20" mask="url(#mask-2)"></path>
            </g>
            <path d="M330.616175,14.441542 C329.410553,11.9554409 328.001163,9.82981021 326.283292,7.92446692 C322.473978,3.70181423 317.869405,1.06980849 312.081851,1.22715666 C306.987671,1.36161782 303.045342,3.67320547 300.43882,8.17050224 C298.698309,11.1772827 297.939842,14.487316 297.659662,17.9117844 C297.31156,22.1802111 297.60589,26.4171681 298.74359,30.5568554 C300.130339,35.5977186 302.592526,39.9634151 306.933899,43.0045261 C310.451713,45.470601 314.360081,46.4747684 318.608061,45.5964795 C322.839061,44.7239124 325.618219,41.64561 326.21254,37.3056614 C326.359705,36.2156678 326.470079,35.1142306 326.50404,34.0156543 C326.605924,30.8829953 325.060689,28.8346082 322.066443,28.0450065 C321.820225,27.9792063 321.574006,27.9134062 321.333448,27.778945 L335,27.778945 C334.555674,27.9906498 334.170781,28.1565806 333.800038,28.3511202 C332.192541,29.2036612 331.258608,30.5740207 331.224647,32.3792333 C331.134084,37.0081304 331.151064,41.6398883 331.128423,46.2687853 C331.125593,46.5663164 331.128423,46.8667084 331.054841,47.1785439 C330.231282,45.3990791 329.209616,43.8198757 327.6474,42.6526383 C327.525706,42.5610903 327.395522,42.4724032 327.262507,42.3922986 C326.195559,41.7400189 326.150278,41.7228537 325.309738,42.6268904 C322.898493,45.2217048 320.059903,47.0526653 316.550579,47.6992233 C314.278009,48.1169111 311.996948,48.0596936 309.718718,47.7707451 C305.719786,47.2643701 302.097259,45.8339322 298.978488,43.2019265 C294.823902,39.6973536 292.571142,35.0999262 291.569287,29.8216103 C290.649504,24.969565 290.79384,20.1404066 292.373035,15.4428485 C293.691862,11.5062834 295.981413,8.19625012 299.221877,5.59285314 C303.059493,2.50882902 307.443317,0.786581783 312.296939,0.220128374 C318.647683,-0.517977584 324.644664,0.583459601 330.228452,3.776197 C330.48033,3.92210167 330.75202,4.31118078 330.75485,4.58868573 C330.76334,7.64124021 330.723719,10.6937947 330.692588,13.7434883 C330.689758,13.9151409 330.655797,14.0867934 330.616175,14.441542" id="Fill-6" fill="#231F20"></path>
            <path d="M179,36.5258621 C178.080993,40.3333333 177.161986,44.137931 176.228529,48 L140,48 C140.508633,47.8390805 140.973916,47.7183908 141.42186,47.5517241 C143.667358,46.7126437 144.823342,45.0316092 144.832012,42.704023 C144.866691,30.4942529 144.869581,18.2816092 144.826232,6.07183908 C144.814672,3.50862069 143.389922,1.91091954 140.901667,1.26149425 C140.67914,1.20402299 140.462393,1.12931034 140.03179,1 L173.847203,1 C174.604372,4.43390805 175.361541,7.86494253 176.15628,11.4597701 C175.364431,10.5028736 174.7113,9.63793103 173.983031,8.83908046 C171.23468,5.81896552 168.127973,3.20977011 164.024231,2.38218391 C161.394368,1.85057471 158.654687,1.82758621 155.958355,1.6637931 C154.426677,1.56896552 152.883438,1.64655172 151.279511,1.64655172 L151.279511,23.2614943 C152.348796,23.2614943 153.426751,23.2758621 154.507595,23.2586207 C156.903372,23.2183908 159.203779,22.8304598 161.192071,21.3649425 C162.602371,20.3247126 163.605187,18.9655172 164.319007,17.3591954 L164.319007,30.0574713 C163.986662,29.4137931 163.735235,28.8591954 163.42601,28.3362069 C162.079289,26.0603448 160.059207,24.6637931 157.464024,24.2844828 C155.435272,23.9885057 153.363172,23.9798851 151.279511,23.841954 C151.244831,24.204023 151.215932,24.3563218 151.215932,24.5086207 C151.224602,30.5344828 151.204372,36.5603448 151.262171,42.5862069 C151.279511,44.3304598 151.796814,45.9482759 153.49611,46.8563218 C154.022082,47.1350575 154.646313,47.3821839 155.221415,47.3793103 C157.981326,47.3706897 160.758577,47.4511494 163.492479,47.1522989 C166.94887,46.7729885 169.870619,45.0057471 172.59585,42.9310345 C175.011856,41.0890805 177.208225,39.0402299 179,36.5258621" id="Fill-8" fill="#231F20"></path>
            <path d="M370.83494,1.06917231 L384,1.06917231 C383.333522,1.26764961 382.862734,1.37695594 382.414634,1.54666841 C379.629609,2.59658452 377.834373,5.19117172 377.774816,8.32941411 C377.726602,10.7888066 377.735111,13.2481992 377.735111,15.7104682 C377.732275,26.4483773 377.732275,37.1891629 377.732275,47.927072 L377.732275,49 C376.819058,47.7688655 376.03063,46.7131964 375.247873,45.6546509 C366.509926,33.8524432 357.77198,22.0502356 349.028361,10.2480279 C348.778786,9.91147948 348.523539,9.56917806 348.214407,9.29015926 C347.553602,8.68609794 346.938174,8.81266317 346.626205,9.64971957 C346.439024,10.1559805 346.317073,10.7226475 346.314237,11.2634262 C346.288712,19.1967649 346.285876,27.1329801 346.277368,35.0691953 C346.274532,36.4441539 346.297221,37.8191126 346.274532,39.1969477 C346.186614,44.1790154 348.741917,47.032486 352.981849,48.1197964 L339,48.1197964 C339.711855,47.849407 340.429382,47.6451767 341.084515,47.3172577 C343.926262,45.8962754 345.233693,43.4541418 345.494611,40.3446642 C345.528644,39.9246978 345.528644,39.4989783 345.528644,39.0761354 C345.53148,30.107263 345.565513,21.1412671 345.500284,12.1723947 C345.486103,10.397605 345.270562,8.57391512 344.81679,6.86240804 C344.198525,4.52382778 343.038571,2.42687205 339.538854,1.04903694 C339.870675,1.03465452 340.089053,1.01451915 340.307431,1.01451915 C343.384572,1.01164266 346.461713,1.02602508 349.54169,1.00013673 C350.0692,0.99438377 350.389677,1.1698492 350.698809,1.58693916 C357.604651,10.9556426 364.521838,20.3157166 371.436188,29.6786671 C372.437323,31.0306139 373.421441,32.3940666 374.450936,33.720125 C374.907544,34.3098039 375.403857,35.1094661 376.266024,34.8304473 C377.079977,34.5658109 376.898469,33.6252011 376.946682,32.9664866 C377.037436,31.7295991 376.989223,30.4812057 376.989223,29.2385653 C376.992059,22.7319619 376.989223,16.2224821 376.989223,9.71587867 C376.992059,8.22873723 376.819058,6.77611357 376.246171,5.38389605 C375.355644,3.22078121 373.722065,1.96663485 371.549631,1.34243815 C371.305729,1.27340257 371.064663,1.20724347 370.823596,1.13820789 C370.826432,1.11519603 370.832104,1.09218417 370.83494,1.06917231" id="Fill-10" fill="#231F20"></path>
            <path d="M125.416521,1 L138,1 C137.02103,1.5245745 135.827375,2.0176172 134.802605,2.74571514 C132.738755,4.20477755 131.536511,6.36327262 130.606204,8.64216184 C127.156911,17.1213497 123.753417,25.6177366 120.338474,34.1083906 C118.366223,39.0158853 116.402559,43.9262466 114.367333,49 C113.703236,47.5352045 113.093527,46.2108689 112.500993,44.8779337 C106.750263,32.0186921 101.00812,19.1565841 95.2488024,6.30020902 C94.0179343,3.55120932 92.0170581,1.68510003 89,1.01146611 L107.325622,1.01146611 C106.627176,1.24938788 105.902968,1.43857868 105.230284,1.73956405 C102.994684,2.73998208 102.155976,4.55162735 103.020446,6.83051657 C104.09674,9.67411168 105.284671,12.4775754 106.478327,15.2753061 C109.01735,21.2348164 111.582136,27.1828606 114.164096,33.1251717 C114.539082,33.9851299 114.985629,34.8364885 115.523776,35.6018513 C116.65732,37.2185727 117.9483,37.1612422 118.838533,35.409794 C119.668653,33.7758734 120.381411,32.0788892 121.062683,30.376172 C123.799217,23.5395043 126.527164,16.6942371 129.203587,9.83177068 C129.638684,8.71955808 129.91062,7.51848313 130.062332,6.33174082 C130.37148,3.91525829 128.877264,1.9545536 126.375453,1.29811884 C126.04913,1.21212302 125.719944,1.14332637 125.393621,1.06879666 L125.416521,1 Z" id="Fill-12" fill="#231F20"></path>
            <path d="M283.98279,48 L268,48 C268.625314,47.8075301 269.107207,47.6868773 269.566153,47.5116435 C271.726067,46.6814376 272.732879,45.026771 272.884905,42.7803313 C272.899247,42.5706253 272.896379,42.3580466 272.896379,42.1454679 C272.896379,30.3645865 272.89351,18.5837052 272.899247,6.80282379 C272.902115,4.88387018 272.403012,3.17749526 270.733596,2.07151152 C270.00502,1.58890043 269.130154,1.33323147 268.37863,1 L283.911079,1 C283.285766,1.21545138 282.740767,1.37344906 282.221585,1.59177312 C280.365722,2.36739808 279.419147,3.82097671 279.221226,5.78589328 C279.146648,6.51842797 279.138042,7.25958071 279.138042,8.00073345 C279.132305,19.1726056 279.132305,30.3473504 279.140911,41.5192225 C279.140911,42.2575026 279.16099,43.0072734 279.295805,43.7283173 C279.694514,45.865595 281.065615,47.1180857 283.102187,47.7127315 C283.251345,47.7558218 283.40337,47.8046574 283.555396,47.8391296 C283.701685,47.8736019 283.850843,47.890838 284,47.9166921 C283.994263,47.945419 283.988526,47.9712731 283.98279,48" id="Fill-14" fill="#231F20"></path>
            <path d="M260.247784,47.9942571 C261.178512,44.0919477 262.089256,40.275782 263,36.4596163 C261.235612,38.9979839 259.04012,41.0568182 256.630503,42.9060362 C253.955372,44.9591276 251.091811,46.7135875 247.70293,47.0840054 C244.976409,47.3826369 242.207062,47.2993646 239.454846,47.3137219 C238.909542,47.3165934 238.321412,47.075391 237.824643,46.811217 C236.14305,45.9124511 235.614876,44.2986926 235.597746,42.5557185 C235.537791,36.5084311 235.557776,30.4611437 235.552066,24.4109848 C235.552066,24.2645406 235.594891,24.1180963 235.600601,24.0865103 C237.502029,24.0865103 239.349211,23.9314516 241.162134,24.1238392 C243.560331,24.3736559 245.618783,25.4762952 247.074831,27.4834433 C247.61728,28.230022 248.01698,29.0828446 248.468069,29.8610093 L248.468069,17.3242302 C247.774305,18.9609604 246.772201,20.3162879 245.361833,21.3528837 C242.398347,23.5265762 238.989482,23.2164589 235.603456,23.1992302 L235.603456,1.61736315 C237.122314,1.61736315 238.592637,1.54270528 240.05154,1.63459189 C242.769497,1.80113636 245.527423,1.81262219 248.179715,2.3467131 C252.236664,3.1650782 255.30864,5.76948925 258.023742,8.78739003 C258.751766,9.59714076 259.408415,10.4700635 260.187829,11.4262586 C259.408415,7.85416667 258.660406,4.42277615 257.915252,1 L225,1 C225.756574,1.39051808 226.787228,1.76093597 227.618032,2.39552786 C229.01127,3.45796676 229.271074,5.06885386 229.271074,6.73142717 L229.271074,41.231977 L229.271074,41.9096408 C229.271074,42.1996579 229.248234,42.489675 229.248234,42.7796921 C229.248234,46.2685117 232.074681,48 234.766942,48 C242.977911,48 251.188881,47.9942571 259.39985,47.9942571 L260.247784,47.9942571 Z" id="Fill-16" fill="#231F20"></path>
            <path d="M201.730783,22.6428909 C198.89982,23.4147576 195.977165,23.4970522 192.911243,23.4942144 L192.911243,0.480100172 C194.521569,0.480100172 196.154817,0.36091487 197.765142,0.51131537 C199.584638,0.684417832 201.427056,0.939814908 203.174918,1.44209582 C206.533106,2.41260471 208.699308,4.63455927 209.470087,8.07390656 C210.083271,10.7924665 210.094733,13.4996755 209.146303,16.1529674 C207.88555,19.6632583 205.246565,21.6865707 201.730783,22.6428909 M304.310225,68.8328709 C298.287264,60.46436 288.032186,60.7708365 279.705486,65.4474407 C277.894586,66.4633536 275.745575,68.7477385 274.378805,69.5139297 C281.158217,65.7056756 289.453398,64.4826073 295.800143,69.8062175 C300.794443,73.9947295 303.138298,80.9245035 302.261501,87.2838907 C301.777258,90.7998571 300.22997,93.8816485 298.109613,96.7080428 C297.01505,98.1694816 295.800143,99.5344371 294.479217,100.800072 C292.76574,102.443126 293.7199,101.395998 294.023627,101.203031 C293.605286,101.469779 293.146831,101.702475 292.705567,101.932332 C291.381777,102.616228 290.003545,103.203642 288.585198,103.663356 C278.232697,107.011896 267.811428,103.1554 259.370114,97.0542477 C254.874384,93.8021916 251.817058,91.602939 247.619324,85.3684126 C247.559152,85.2832803 218.292492,42.5808892 217.026008,40.4525803 C214.667827,36.4825746 212.326838,32.5068935 209.925677,28.5624275 C208.819653,26.7491083 207.556035,25.0464611 205.490119,24.0305483 C205.61906,23.9596047 205.66204,23.9255517 205.710751,23.911363 C205.862614,23.8687968 206.014478,23.8347439 206.169206,23.8006909 C208.323948,23.2898968 210.301038,22.3988448 211.937151,20.9005152 C215.309665,17.8102106 216.564687,13.9281751 215.854081,9.50129243 C215.220839,5.55682649 212.942888,2.80705131 209.100457,1.37115219 C206.65345,0.460235955 204.100426,0.0884913224 201.533074,0.0516006337 C195.031601,-0.0420449608 188.524396,0.0203854355 182.022923,0.0203854355 C182.014327,0.102680049 182.008596,0.184974662 182,0.267269275 C182.269343,0.335375162 182.53582,0.403481049 182.802297,0.474424681 C185.137556,1.10440413 186.487134,2.71624346 186.498596,5.11130048 C186.53298,12.3645774 186.521518,19.6206921 186.521518,26.8768068 C186.521518,31.9138047 186.535845,36.9536403 186.469942,41.9878005 C186.461346,42.7596672 186.186273,43.5882888 185.819508,44.2778609 C185.065922,45.6882203 183.664767,46.2415806 182.180517,46.6360272 L196.544504,46.6360272 C193.37543,45.5548463 192.816687,44.7631154 192.831014,41.380523 C192.84534,37.2828188 192.868263,33.1851146 192.88259,29.0874104 C192.891186,27.5039485 192.885455,25.9176489 192.885455,24.356889 C193.077434,24.2972964 193.149067,24.2547302 193.220701,24.2518924 C193.853943,24.2462169 194.487185,24.2575679 195.117561,24.2377037 C198.713572,24.1270316 201.312442,25.7672484 203.114746,28.7497187 C204.664899,31.3178782 206.137688,33.9314416 207.693571,36.4939256 C209.478683,39.4338297 210.985856,42.5439985 213.089021,45.2880982 C213.269538,45.5264688 232.874245,76.0833101 238.06339,83.6998184 C243.246804,91.3106513 248.708156,97.6757139 254.645156,101.813147 C263.914555,108.271855 275.267062,111.521073 286.00925,106.662853 C293.51073,103.26891 301.275822,97.0060061 305.467825,89.9088051 C309.29593,83.4273949 308.682745,74.914159 304.310225,68.8328709" id="Fill-18" fill="#231F20"></path>
            <path d="M79.8713061,25.2407546 C79.7503355,23.9856894 79.6466464,22.209815 79.4018249,20.4510162 C78.7508877,15.7551942 77.2041919,11.3838108 74.3037772,7.55600445 C72.2415161,4.83527366 69.678091,2.66950364 66.3024345,1.82425569 C59.0009933,-0.00284595271 52.1287098,3.02240178 49.0439589,10.5101034 C47.2582021,14.8359515 46.8952902,19.3496325 47.2610823,23.9629218 C47.632635,28.6587438 48.8913055,33.0870462 51.2531129,37.1852181 C53.4507459,40.9959488 56.3137173,44.1634942 60.5304076,45.8340684 C63.9060641,47.1716662 67.3681281,47.30258 70.8100304,46.0133634 C74.1597646,44.7554523 76.2508282,42.2339382 77.6506311,39.0976983 C79.5515981,34.845845 79.8857074,30.329318 79.8713061,25.2407546 M65.0351232,0.204908595 C68.949387,0.224830264 72.6879553,0.936318442 76.1471391,2.85164462 C80.0815646,5.03164439 82.8034036,8.27033858 84.6266037,12.2859779 C86.3201925,16.0141759 87.0748187,19.9558204 86.9941717,24.0169949 C86.8645603,30.4033128 85.0211984,36.2033644 80.5280038,40.9760271 C76.9795322,44.7497604 72.5554637,46.881379 67.4228529,47.664016 C64.0615977,48.1734415 60.7089833,48.1250603 57.4110937,47.3708829 C49.4615956,45.555165 44.3462664,40.5889776 41.5841038,33.1240436 C40.1439773,29.2279343 39.7234604,25.1923734 40.1698996,21.0885096 C41.290318,10.771931 47.9955468,3.30130514 58.1253964,1.01600512 C60.3777542,0.506579583 62.7078789,0.330130514 65.0034405,0 C65.0120812,0.0683028651 65.0236022,0.13660573 65.0351232,0.204908595" id="Fill-20" fill="#FEFEFE"></path>
            <g id="Group-24">
                <mask id="mask-4" fill="white">
                    <use xlink:href="#path-3"></use>
                </mask>
                <g id="Clip-23"></g>
                <path d="M30.3724833,12.5322833 C29.0578167,10.0191167 27.33515,7.99045 25.4084833,6.12328333 C22.4448167,3.25311667 18.9739833,1.45111667 14.82315,1.23295 C11.8679833,1.07711667 9.06865,1.65228333 7.17315,4.21645 C4.45031667,7.90545 5.36548333,13.4587833 9.07148333,16.2836167 C11.4429833,18.0941167 14.20265,18.9611167 17.0614833,19.5872833 C20.3339833,20.3041167 23.56965,21.1342833 26.5729833,22.6812833 C29.61315,24.2481167 32.0044833,26.40145 33.0358167,29.7986167 C33.59115,31.6261167 33.59965,33.4932833 33.4664833,35.36895 C33.30215,37.64695 32.7723167,39.8257833 31.5369833,41.78645 C29.7548167,44.6141167 27.12265,46.28295 24.0059833,47.2547833 C20.5889833,48.3172833 17.1039833,48.3286167 13.5764833,47.9461167 C10.2218167,47.5806167 6.97481667,46.8411167 3.92331667,45.3847833 C2.71065,44.80395 1.57731667,44.0616167 0.426983333,43.3561167 C0.251316667,43.24845 0.0983166667,42.9537833 0.0954833333,42.7441167 C0.0473166667,38.88795 0.02465,35.0317833 -0.00085,31.1756167 C-0.00085,31.13595 0.04165,31.0991167 0.0388166667,31.1047833 C0.820816667,32.5866167 1.50365,34.1591167 2.42165,35.58145 C5.84148333,40.8882833 10.4314833,44.6991167 16.6789833,46.2092833 C19.4443167,46.87795 22.2493167,46.9261167 24.98915,46.0052833 C29.0209833,44.6481167 30.34415,41.5286167 30.1174833,37.8906167 C29.8624833,33.83045 27.2473167,31.4901167 23.9379833,29.7192833 C20.9374833,28.1156167 17.67065,27.2797833 14.4009833,26.45245 C11.4458167,25.7016167 8.58131667,24.7241167 6.07665,22.9051167 C2.43865,20.2587833 1.23731667,16.5896167 1.48665,12.2546167 C1.85215,5.92778333 6.51865,1.92145 12.5479833,0.700283333 C18.5064833,-0.50955 24.2184833,0.43395 29.6868167,3.03778333 C30.1968167,3.28145 30.39515,3.57895 30.38665,4.15978333 C30.3554833,6.89111667 30.3724833,9.62528333 30.3724833,12.5322833" id="Fill-22" fill="#FEFEFE" mask="url(#mask-4)"></path>
            </g>
            <path d="M330.616175,14.441542 C329.410553,11.9554409 328.001163,9.82981021 326.283292,7.92446692 C322.473978,3.70181423 317.869405,1.06980849 312.081851,1.22715666 C306.987671,1.36161782 303.045342,3.67320547 300.43882,8.17050224 C298.698309,11.1772827 297.939842,14.487316 297.659662,17.9117844 C297.31156,22.1802111 297.60589,26.4171681 298.74359,30.5568554 C300.130339,35.5977186 302.592526,39.9634151 306.933899,43.0045261 C310.451713,45.470601 314.360081,46.4747684 318.608061,45.5964795 C322.839061,44.7239124 325.618219,41.64561 326.21254,37.3056614 C326.359705,36.2156678 326.470079,35.1142306 326.50404,34.0156543 C326.605924,30.8829953 325.060689,28.8346082 322.066443,28.0450065 C321.820225,27.9792063 321.574006,27.9134062 321.333448,27.778945 L335,27.778945 C334.555674,27.9906498 334.170781,28.1565806 333.800038,28.3511202 C332.192541,29.2036612 331.258608,30.5740207 331.224647,32.3792333 C331.134084,37.0081304 331.151064,41.6398883 331.128423,46.2687853 C331.125593,46.5663164 331.128423,46.8667084 331.054841,47.1785439 C330.231282,45.3990791 329.209616,43.8198757 327.6474,42.6526383 C327.525706,42.5610903 327.395522,42.4724032 327.262507,42.3922986 C326.195559,41.7400189 326.150278,41.7228537 325.309738,42.6268904 C322.898493,45.2217048 320.059903,47.0526653 316.550579,47.6992233 C314.278009,48.1169111 311.996948,48.0596936 309.718718,47.7707451 C305.719786,47.2643701 302.097259,45.8339322 298.978488,43.2019265 C294.823902,39.6973536 292.571142,35.0999262 291.569287,29.8216103 C290.649504,24.969565 290.79384,20.1404066 292.373035,15.4428485 C293.691862,11.5062834 295.981413,8.19625012 299.221877,5.59285314 C303.059493,2.50882902 307.443317,0.786581783 312.296939,0.220128374 C318.647683,-0.517977584 324.644664,0.583459601 330.228452,3.776197 C330.48033,3.92210167 330.75202,4.31118078 330.75485,4.58868573 C330.76334,7.64124021 330.723719,10.6937947 330.692588,13.7434883 C330.689758,13.9151409 330.655797,14.0867934 330.616175,14.441542" id="Fill-25" fill="#FEFEFE"></path>
            <path d="M179,36.5258621 C178.080993,40.3333333 177.161986,44.137931 176.228529,48 L140,48 C140.508633,47.8390805 140.973916,47.7183908 141.42186,47.5517241 C143.667358,46.7126437 144.823342,45.0316092 144.832012,42.704023 C144.866691,30.4942529 144.869581,18.2816092 144.826232,6.07183908 C144.814672,3.50862069 143.389922,1.91091954 140.901667,1.26149425 C140.67914,1.20402299 140.462393,1.12931034 140.03179,1 L173.847203,1 C174.604372,4.43390805 175.361541,7.86494253 176.15628,11.4597701 C175.364431,10.5028736 174.7113,9.63793103 173.983031,8.83908046 C171.23468,5.81896552 168.127973,3.20977011 164.024231,2.38218391 C161.394368,1.85057471 158.654687,1.82758621 155.958355,1.6637931 C154.426677,1.56896552 152.883438,1.64655172 151.279511,1.64655172 L151.279511,23.2614943 C152.348796,23.2614943 153.426751,23.2758621 154.507595,23.2586207 C156.903372,23.2183908 159.203779,22.8304598 161.192071,21.3649425 C162.602371,20.3247126 163.605187,18.9655172 164.319007,17.3591954 L164.319007,30.0574713 C163.986662,29.4137931 163.735235,28.8591954 163.42601,28.3362069 C162.079289,26.0603448 160.059207,24.6637931 157.464024,24.2844828 C155.435272,23.9885057 153.363172,23.9798851 151.279511,23.841954 C151.244831,24.204023 151.215932,24.3563218 151.215932,24.5086207 C151.224602,30.5344828 151.204372,36.5603448 151.262171,42.5862069 C151.279511,44.3304598 151.796814,45.9482759 153.49611,46.8563218 C154.022082,47.1350575 154.646313,47.3821839 155.221415,47.3793103 C157.981326,47.3706897 160.758577,47.4511494 163.492479,47.1522989 C166.94887,46.7729885 169.870619,45.0057471 172.59585,42.9310345 C175.011856,41.0890805 177.208225,39.0402299 179,36.5258621" id="Fill-27" fill="#FEFEFE"></path>
            <path d="M370.83494,1.06917231 L384,1.06917231 C383.333522,1.26764961 382.862734,1.37695594 382.414634,1.54666841 C379.629609,2.59658452 377.834373,5.19117172 377.774816,8.32941411 C377.726602,10.7888066 377.735111,13.2481992 377.735111,15.7104682 C377.732275,26.4483773 377.732275,37.1891629 377.732275,47.927072 L377.732275,49 C376.819058,47.7688655 376.03063,46.7131964 375.247873,45.6546509 C366.509926,33.8524432 357.77198,22.0502356 349.028361,10.2480279 C348.778786,9.91147948 348.523539,9.56917806 348.214407,9.29015926 C347.553602,8.68609794 346.938174,8.81266317 346.626205,9.64971957 C346.439024,10.1559805 346.317073,10.7226475 346.314237,11.2634262 C346.288712,19.1967649 346.285876,27.1329801 346.277368,35.0691953 C346.274532,36.4441539 346.297221,37.8191126 346.274532,39.1969477 C346.186614,44.1790154 348.741917,47.032486 352.981849,48.1197964 L339,48.1197964 C339.711855,47.849407 340.429382,47.6451767 341.084515,47.3172577 C343.926262,45.8962754 345.233693,43.4541418 345.494611,40.3446642 C345.528644,39.9246978 345.528644,39.4989783 345.528644,39.0761354 C345.53148,30.107263 345.565513,21.1412671 345.500284,12.1723947 C345.486103,10.397605 345.270562,8.57391512 344.81679,6.86240804 C344.198525,4.52382778 343.038571,2.42687205 339.538854,1.04903694 C339.870675,1.03465452 340.089053,1.01451915 340.307431,1.01451915 C343.384572,1.01164266 346.461713,1.02602508 349.54169,1.00013673 C350.0692,0.99438377 350.389677,1.1698492 350.698809,1.58693916 C357.604651,10.9556426 364.521838,20.3157166 371.436188,29.6786671 C372.437323,31.0306139 373.421441,32.3940666 374.450936,33.720125 C374.907544,34.3098039 375.403857,35.1094661 376.266024,34.8304473 C377.079977,34.5658109 376.898469,33.6252011 376.946682,32.9664866 C377.037436,31.7295991 376.989223,30.4812057 376.989223,29.2385653 C376.992059,22.7319619 376.989223,16.2224821 376.989223,9.71587867 C376.992059,8.22873723 376.819058,6.77611357 376.246171,5.38389605 C375.355644,3.22078121 373.722065,1.96663485 371.549631,1.34243815 C371.305729,1.27340257 371.064663,1.20724347 370.823596,1.13820789 C370.826432,1.11519603 370.832104,1.09218417 370.83494,1.06917231" id="Fill-29" fill="#FEFEFE"></path>
            <path d="M125.416521,1 L138,1 C137.02103,1.5245745 135.827375,2.0176172 134.802605,2.74571514 C132.738755,4.20477755 131.536511,6.36327262 130.606204,8.64216184 C127.156911,17.1213497 123.753417,25.6177366 120.338474,34.1083906 C118.366223,39.0158853 116.402559,43.9262466 114.367333,49 C113.703236,47.5352045 113.093527,46.2108689 112.500993,44.8779337 C106.750263,32.0186921 101.00812,19.1565841 95.2488024,6.30020902 C94.0179343,3.55120932 92.0170581,1.68510003 89,1.01146611 L107.325622,1.01146611 C106.627176,1.24938788 105.902968,1.43857868 105.230284,1.73956405 C102.994684,2.73998208 102.155976,4.55162735 103.020446,6.83051657 C104.09674,9.67411168 105.284671,12.4775754 106.478327,15.2753061 C109.01735,21.2348164 111.582136,27.1828606 114.164096,33.1251717 C114.539082,33.9851299 114.985629,34.8364885 115.523776,35.6018513 C116.65732,37.2185727 117.9483,37.1612422 118.838533,35.409794 C119.668653,33.7758734 120.381411,32.0788892 121.062683,30.376172 C123.799217,23.5395043 126.527164,16.6942371 129.203587,9.83177068 C129.638684,8.71955808 129.91062,7.51848313 130.062332,6.33174082 C130.37148,3.91525829 128.877264,1.9545536 126.375453,1.29811884 C126.04913,1.21212302 125.719944,1.14332637 125.393621,1.06879666 L125.416521,1 Z" id="Fill-31" fill="#FEFEFE"></path>
            <path d="M283.98279,48 L268,48 C268.625314,47.8075301 269.107207,47.6868773 269.566153,47.5116435 C271.726067,46.6814376 272.732879,45.026771 272.884905,42.7803313 C272.899247,42.5706253 272.896379,42.3580466 272.896379,42.1454679 C272.896379,30.3645865 272.89351,18.5837052 272.899247,6.80282379 C272.902115,4.88387018 272.403012,3.17749526 270.733596,2.07151152 C270.00502,1.58890043 269.130154,1.33323147 268.37863,1 L283.911079,1 C283.285766,1.21545138 282.740767,1.37344906 282.221585,1.59177312 C280.365722,2.36739808 279.419147,3.82097671 279.221226,5.78589328 C279.146648,6.51842797 279.138042,7.25958071 279.138042,8.00073345 C279.132305,19.1726056 279.132305,30.3473504 279.140911,41.5192225 C279.140911,42.2575026 279.16099,43.0072734 279.295805,43.7283173 C279.694514,45.865595 281.065615,47.1180857 283.102187,47.7127315 C283.251345,47.7558218 283.40337,47.8046574 283.555396,47.8391296 C283.701685,47.8736019 283.850843,47.890838 284,47.9166921 C283.994263,47.945419 283.988526,47.9712731 283.98279,48" id="Fill-33" fill="#FEFEFE"></path>
            <path d="M260.247784,47.9942571 C261.178512,44.0919477 262.089256,40.275782 263,36.4596163 C261.235612,38.9979839 259.04012,41.0568182 256.630503,42.9060362 C253.955372,44.9591276 251.091811,46.7135875 247.70293,47.0840054 C244.976409,47.3826369 242.207062,47.2993646 239.454846,47.3137219 C238.909542,47.3165934 238.321412,47.075391 237.824643,46.811217 C236.14305,45.9124511 235.614876,44.2986926 235.597746,42.5557185 C235.537791,36.5084311 235.557776,30.4611437 235.552066,24.4109848 C235.552066,24.2645406 235.594891,24.1180963 235.600601,24.0865103 C237.502029,24.0865103 239.349211,23.9314516 241.162134,24.1238392 C243.560331,24.3736559 245.618783,25.4762952 247.074831,27.4834433 C247.61728,28.230022 248.01698,29.0828446 248.468069,29.8610093 L248.468069,17.3242302 C247.774305,18.9609604 246.772201,20.3162879 245.361833,21.3528837 C242.398347,23.5265762 238.989482,23.2164589 235.603456,23.1992302 L235.603456,1.61736315 C237.122314,1.61736315 238.592637,1.54270528 240.05154,1.63459189 C242.769497,1.80113636 245.527423,1.81262219 248.179715,2.3467131 C252.236664,3.1650782 255.30864,5.76948925 258.023742,8.78739003 C258.751766,9.59714076 259.408415,10.4700635 260.187829,11.4262586 C259.408415,7.85416667 258.660406,4.42277615 257.915252,1 L225,1 C225.756574,1.39051808 226.787228,1.76093597 227.618032,2.39552786 C229.01127,3.45796676 229.271074,5.06885386 229.271074,6.73142717 L229.271074,41.231977 L229.271074,41.9096408 C229.271074,42.1996579 229.248234,42.489675 229.248234,42.7796921 C229.248234,46.2685117 232.074681,48 234.766942,48 C242.977911,48 251.188881,47.9942571 259.39985,47.9942571 L260.247784,47.9942571 Z" id="Fill-35" fill="#FEFEFE"></path>
            <path d="M201.730783,22.6428909 C198.89982,23.4147576 195.977165,23.4970522 192.911243,23.4942144 L192.911243,0.480100172 C194.521569,0.480100172 196.154817,0.36091487 197.765142,0.51131537 C199.584638,0.684417832 201.427056,0.939814908 203.174918,1.44209582 C206.533106,2.41260471 208.699308,4.63455927 209.470087,8.07390656 C210.083271,10.7924665 210.094733,13.4996755 209.146303,16.1529674 C207.88555,19.6632583 205.246565,21.6865707 201.730783,22.6428909 M304.310225,68.8328709 C298.287264,60.46436 288.032186,60.7708365 279.705486,65.4474407 C277.894586,66.4633536 275.745575,68.7477385 274.378805,69.5139297 C281.158217,65.7056756 289.453398,64.4826073 295.800143,69.8062175 C300.794443,73.9947295 303.138298,80.9245035 302.261501,87.2838907 C301.777258,90.7998571 300.22997,93.8816485 298.109613,96.7080428 C297.01505,98.1694816 295.800143,99.5344371 294.479217,100.800072 C292.76574,102.443126 293.7199,101.395998 294.023627,101.203031 C293.605286,101.469779 293.146831,101.702475 292.705567,101.932332 C291.381777,102.616228 290.003545,103.203642 288.585198,103.663356 C278.232697,107.011896 267.811428,103.1554 259.370114,97.0542477 C254.874384,93.8021916 251.817058,91.602939 247.619324,85.3684126 C247.559152,85.2832803 218.292492,42.5808892 217.026008,40.4525803 C214.667827,36.4825746 212.326838,32.5068935 209.925677,28.5624275 C208.819653,26.7491083 207.556035,25.0464611 205.490119,24.0305483 C205.61906,23.9596047 205.66204,23.9255517 205.710751,23.911363 C205.862614,23.8687968 206.014478,23.8347439 206.169206,23.8006909 C208.323948,23.2898968 210.301038,22.3988448 211.937151,20.9005152 C215.309665,17.8102106 216.564687,13.9281751 215.854081,9.50129243 C215.220839,5.55682649 212.942888,2.80705131 209.100457,1.37115219 C206.65345,0.460235955 204.100426,0.0884913224 201.533074,0.0516006337 C195.031601,-0.0420449608 188.524396,0.0203854355 182.022923,0.0203854355 C182.014327,0.102680049 182.008596,0.184974662 182,0.267269275 C182.269343,0.335375162 182.53582,0.403481049 182.802297,0.474424681 C185.137556,1.10440413 186.487134,2.71624346 186.498596,5.11130048 C186.53298,12.3645774 186.521518,19.6206921 186.521518,26.8768068 C186.521518,31.9138047 186.535845,36.9536403 186.469942,41.9878005 C186.461346,42.7596672 186.186273,43.5882888 185.819508,44.2778609 C185.065922,45.6882203 183.664767,46.2415806 182.180517,46.6360272 L196.544504,46.6360272 C193.37543,45.5548463 192.816687,44.7631154 192.831014,41.380523 C192.84534,37.2828188 192.868263,33.1851146 192.88259,29.0874104 C192.891186,27.5039485 192.885455,25.9176489 192.885455,24.356889 C193.077434,24.2972964 193.149067,24.2547302 193.220701,24.2518924 C193.853943,24.2462169 194.487185,24.2575679 195.117561,24.2377037 C198.713572,24.1270316 201.312442,25.7672484 203.114746,28.7497187 C204.664899,31.3178782 206.137688,33.9314416 207.693571,36.4939256 C209.478683,39.4338297 210.985856,42.5439985 213.089021,45.2880982 C213.269538,45.5264688 232.874245,76.0833101 238.06339,83.6998184 C243.246804,91.3106513 248.708156,97.6757139 254.645156,101.813147 C263.914555,108.271855 275.267062,111.521073 286.00925,106.662853 C293.51073,103.26891 301.275822,97.0060061 305.467825,89.9088051 C309.29593,83.4273949 308.682745,74.914159 304.310225,68.8328709" id="Fill-37" fill="#FEFEFE"></path>
        </g>
    </g>
</svg>