<?xml version="1.0" encoding="UTF-8" standalone="no"?>
<svg width="120px" height="80px" viewBox="0 0 120 80" version="1.1" xmlns="http://www.w3.org/2000/svg" xmlns:xlink="http://www.w3.org/1999/xlink">
    <!-- Generator: Sketch 48.2 (47327) - http://www.bohemiancoding.com/sketch -->
    <title>vision</title>
    <desc>Created with Sketch.</desc>
    <defs></defs>
    <g id="AboutUs-page-1440-" stroke="none" stroke-width="1" fill="none" fill-rule="evenodd" transform="translate(-208.000000, -629.000000)">
        <g id="vision" transform="translate(208.000000, 629.000000)" fill="#FFFFFF">
            <path d="M25.6211085,6.99888141 C31.1482335,5.47520325 36.3135014,6.10937949 41.7021978,7.56746379 C38.1461621,2.90662087 29.4011799,2.59612279 25.6211085,6.99888141 M96.2360728,8.45052892 C91.6879656,3.18708064 82.1473228,4.51428371 79.9606978,8.57681245 C85.2983942,6.94891972 90.5926799,6.77390057 96.2360728,8.45052892 M48.4818585,27.2204906 C56.5972335,27.3863144 64.5902692,27.5499925 72.6094121,27.7139772 C72.6725549,24.5127511 72.7469299,21.4693795 72.7721264,18.4257013 C72.7745549,18.1069274 72.4879835,17.7860078 72.3355906,17.4660078 C72.0092514,17.6401075 71.6340371,17.7608737 71.3726621,18.0054714 C71.1677514,18.1976554 71.1125014,18.5476937 70.9746799,18.818958 C69.2758942,22.1636324 66.5534656,24.3024829 62.9531085,24.956276 C57.2647871,25.9889197 52.1544656,22.8116017 50.3108764,18.0710653 C50.1135549,17.5634791 49.4766621,17.230299 49.0434656,16.8161994 C48.9214299,16.9069274 48.7996978,16.9973488 48.6776621,17.0880768 C48.6133049,20.4122147 48.5492514,23.7363527 48.4818585,27.2204906 M74.1072335,37.8908354 C64.5353228,36.6721381 55.1813764,36.212981 45.4801442,37.491755 C49.1351442,42.4747435 50.6587692,47.801027 50.7255549,53.2980385 C56.6075549,53.4114485 62.3517335,53.5224063 68.1818228,53.6348967 C68.3952335,47.8595711 70.3757335,42.6267741 74.1072335,37.8908354 M110.08318,34.2267741 C108.022841,29.400414 106.199287,24.6782684 104.015698,20.1320615 C101.475109,14.8419465 97.0930549,11.7639389 91.3033406,11.263709 C88.3432156,11.0080768 85.2859478,11.3691496 82.3264299,11.8154331 C80.1422335,12.1449351 78.0448585,13.0635557 76.0467514,13.6771956 C76.2738228,14.6083833 76.5840728,15.2787282 76.5761799,15.9450883 C76.5236621,20.36164 76.4186264,24.7778852 76.2965906,29.1929044 C76.2461978,31.0218699 75.7000728,31.5407971 73.9256978,31.5135174 C70.5566621,31.4614101 67.1876264,31.4007205 63.8198049,31.2995711 C62.6158406,31.2634025 61.9133764,31.5343603 62.4516085,32.9743603 C62.6219121,33.0108354 62.8143764,33.0715251 63.0107871,33.0911419 C67.6089835,33.5512186 72.2059656,34.030299 76.8093228,34.430299 C77.3229656,34.47505 77.9507514,34.1719082 78.3982156,33.8500692 C85.2832156,28.9007971 92.8221085,27.4660078 100.885876,29.9775787 C103.915823,30.9213335 106.709287,32.6396477 110.08318,34.2267741 M45.5466264,13.3277703 C45.6100728,13.1745136 45.6732156,13.0212569 45.7366621,12.8680002 C42.5449121,11.9797243 39.3986978,10.8217167 36.1516978,10.2607971 C29.8267871,9.16807681 23.8433942,10.167617 19.4674121,15.3446285 C17.2070192,18.018958 15.5252335,21.2355098 13.8428406,24.3506055 C12.6100371,26.6335174 11.8016264,29.150299 10.7458049,31.7038623 C13.1658764,30.5915251 15.2626442,29.3222531 17.5321442,28.6390347 C26.2485906,26.0152799 34.2513406,27.559801 41.4626799,33.229073 C41.9684299,33.6266209 42.7920192,33.7939772 43.4565371,33.7679236 C45.1601799,33.7011036 46.8541085,33.4111419 48.5580549,33.30846 C51.8636442,33.1092262 55.1734835,32.977732 58.5646799,32.8140538 C58.5665014,32.3055481 58.5683228,31.824322 58.5704478,31.2443987 C54.6504299,31.1463144 50.8387871,31.057119 47.0274478,30.9525979 C45.2494299,30.9038623 44.6632335,30.2886898 44.6948049,28.5449351 C44.7725192,24.2794944 44.8250371,20.0134408 44.9598228,15.7498393 C44.9856264,14.9369657 45.3426264,14.1348201 45.5466264,13.3277703 M19.9385549,31.9288431 C9.54214422,34.4526745 1.13078708,45.4699925 4.29217994,58.3049351 C7.31059065,70.5599542 19.3626799,77.2952799 31.0945014,74.0621764 C41.6071799,71.1653182 49.1995014,60.3493795 46.3468406,48.052368 C43.5032871,35.7933642 31.6521621,28.8609504 19.9385549,31.9288431 M72.6154835,59.6591113 C75.2623228,71.0920615 86.8833406,78.3932109 98.1716442,75.7804906 C110.24043,72.9869274 117.087484,61.3878469 114.748162,50.1860078 C112.093734,37.4755098 100.276912,30.34846 88.3848049,33.2315251 C77.0880014,35.9705289 69.5472871,47.7219465 72.6154835,59.6591113 M68.1478228,57.7541305 C63.2108406,57.0666209 58.1050728,56.9050883 52.9549835,57.1640921 C50.8770371,57.2683067 50.1578764,58.0364293 49.5993049,60.0152799 C45.0448228,76.15505 26.9726085,83.4752032 12.5250371,75.138958 C0.786537078,68.3656247 -3.40396292,52.8799542 2.97984065,40.830299 C5.06021565,36.9032492 6.41323351,32.5817167 8.07862636,28.4321381 C10.2631264,22.9887665 12.4618942,17.5187282 16.4590192,13.1346669 C18.4650192,10.9345136 20.0481442,8.58110363 21.5799656,6.01711896 C24.8130014,0.605011679 32.2717514,-1.34778526 38.6834835,1.00409214 C42.3409121,2.34570133 45.1814299,4.612368 46.4858764,8.51367068 C47.0805728,10.291755 48.7174299,10.7674638 50.2826442,11.1576554 C52.8411442,11.7952032 52.8529835,11.7464676 53.1453228,14.2295328 C53.6501621,18.5152032 56.8950371,21.5018699 60.9704835,21.4316783 C64.9509121,21.3636324 68.1147335,18.3000308 68.4863049,14.0781151 C68.6135014,12.6310653 69.2261085,11.9254714 70.7190728,11.7642454 C72.9682335,11.5214868 74.6494121,10.6264676 75.6311621,8.19520325 C77.1256442,4.49436034 80.3808406,2.51796187 84.0689299,1.66186992 C89.4169478,0.420797119 94.4620014,1.33267451 98.4560906,5.40930287 C99.7065014,6.68562471 100.356751,8.5642454 101.264734,10.177119 C101.530662,10.6491496 101.614751,11.3032492 101.99118,11.6223297 C105.789769,14.8401075 108.066555,19.1049351 109.816644,23.6244753 C111.574019,28.1630193 112.956484,32.8496094 114.492251,37.4752032 C115.706841,41.1331343 117.079591,44.749073 118.078037,48.4670806 C121.146234,59.8920615 115.294894,72.4272339 104.200876,77.6321381 C91.2638764,83.7017167 75.7228406,77.6854714 70.2108942,64.4066975 C69.3441978,62.3190347 68.8554478,60.0713718 68.1478228,57.7541305" id="Fill-1" transform="translate(59.444801, 40.011720) rotate(-1.000000) translate(-59.444801, -40.011720) "></path>
            <path d="M91.2634098,43.0111946 C85.3270271,44.4302253 81.5190491,50.4612534 82.9157408,56.2324506 C84.4887168,62.7326505 90.3831692,66.4130952 96.7347207,64.860606 C102.565097,63.4353748 106.323467,57.2168552 104.91083,51.3328677 C103.449766,45.2478067 97.3828684,41.5484651 91.2634098,43.0111946 M90.3890749,39.6026865 C97.5502942,37.4596726 106.130351,41.9417545 108.272044,50.1385317 C110.319541,57.9744983 105.976213,66.3259929 97.4354288,68.3833807 C88.9040934,70.4384064 81.4260347,65.2902127 79.474505,57.4669423 C77.3316315,48.87599 83.1301167,41.0285082 90.3890749,39.6026865" id="Fill-4" transform="translate(93.898438, 53.953488) rotate(-1.000000) translate(-93.898438, -53.953488) "></path>
            <path d="M14.2364673,56.6393864 C15.2707153,62.2215476 21.2943832,66.4254595 27.5692342,64.9839578 C33.4807406,63.6261029 37.6413454,57.9617728 36.0495363,51.309052 C34.4293915,44.5369203 27.9302174,41.7207161 22.6462256,42.9792591 C16.328281,44.4837174 12.713726,50.3448981 14.2364673,56.6393864 M28.453835,68.4258867 C20.4038792,70.3405981 12.4108897,65.3974622 10.6036122,57.1986075 C8.8270316,49.1386712 13.469341,41.5179541 21.5635711,39.5260985 C30.1678412,37.4086251 37.6646632,42.9343322 39.5318586,50.4353429 C41.5363044,58.486412 36.5758103,66.4943276 28.453835,68.4258867" id="Fill-6" transform="translate(25.101562, 53.953488) rotate(-1.000000) translate(-25.101562, -53.953488) "></path>
            <path d="M60.2572623,47.343458 C61.6894986,46.974824 62.5826077,45.43721 62.2005661,43.9976906 C61.7856685,42.4358528 60.3282505,41.5592377 58.8046408,41.9552135 C57.3042942,42.3449534 56.4001531,43.9015147 56.8095347,45.3902014 C57.2244324,46.8999939 58.7099099,47.7415923 60.2572623,47.343458 M64.9211159,43.4495834 C65.6375907,46.4094627 63.8346736,49.2572466 60.8845523,50.0536151 C58.2283874,50.770651 54.8046044,49.3187937 54.083203,45.9498483 C53.3979303,42.7491629 54.9183865,40.0890626 58.2136075,39.255953 C61.680088,38.3797838 64.4678647,40.7328504 64.9211159,43.4495834" id="Fill-8" transform="translate(59.500000, 44.651163) rotate(-1.000000) translate(-59.500000, -44.651163) "></path>
        </g>
    </g>
</svg>